<svg xmlns="http://www.w3.org/2000/svg" xmlns:xlink="http://www.w3.org/1999/xlink" width="540" height="271" viewBox="0 0 540 271">
    <defs>
        <rect id="rdqmrx7lsa" width="540" height="271" x="0" y="0" rx="5"/>
        <path id="6dbdt6cnwb" d="M0 0L17 0 17 11 0 11z"/>
    </defs>
    <g fill="none" fill-rule="evenodd">
        <g>
            <g>
                <g>
                    <g transform="translate(-79 -452) translate(79 452)">
                        <use fill="#F7F2F2" xlink:href="#rdqmrx7lsa"/>
                    </g>
                    <g>
                        <g stroke="#BBB">
                            <path stroke-dasharray="6" d="M0 17.5L483 17.5" transform="translate(-79 -452) translate(79 452) translate(24 62) translate(28)"/>
                            <path d="M-77 78L78 78" transform="translate(-79 -452) translate(79 452) translate(24 62) translate(28) rotate(-90 .5 78)"/>
                            <path stroke-dasharray="6" d="M0 53.5L483 53.5M0 87.5L483 87.5M0 121.5L483 121.5" transform="translate(-79 -452) translate(79 452) translate(24 62) translate(28)"/>
                            <path d="M0 156L488 156" transform="translate(-79 -452) translate(79 452) translate(24 62) translate(28)"/>
                        </g>
                        <text fill="#8D9AA9" font-family="Rubik-Regular, Rubik" font-size="12" letter-spacing="-.126" transform="translate(-79 -452) translate(79 452) translate(24 62)">
                            <tspan x="8.506" y="157">0</tspan>
                        </text>
                        <text fill="#8D9AA9" font-family="Rubik-Regular, Rubik" font-size="12" letter-spacing="-.126" transform="translate(-79 -452) translate(79 452) translate(24 62)">
                            <tspan x="3.495" y="125">10</tspan>
                        </text>
                        <text fill="#8D9AA9" font-family="Rubik-Regular, Rubik" font-size="12" letter-spacing="-.126" transform="translate(-79 -452) translate(79 452) translate(24 62)">
                            <tspan x=".419" y="56">30</tspan>
                        </text>
                        <text fill="#8D9AA9" font-family="Rubik-Regular, Rubik" font-size="12" letter-spacing="-.126" transform="translate(-79 -452) translate(79 452) translate(24 62)">
                            <tspan x="1.587" y="91">20</tspan>
                        </text>
                        <text fill="#8D9AA9" font-family="Rubik-Regular, Rubik" font-size="12" letter-spacing="-.126" transform="translate(-79 -452) translate(79 452) translate(24 62)">
                            <tspan x="150" y="186">Дослід 1</tspan>
                        </text>
                        <text fill="#8D9AA9" font-family="Rubik-Regular, Rubik" font-size="12" letter-spacing="-.126" transform="translate(-79 -452) translate(79 452) translate(24 62)">
                            <tspan x="336.475" y="186">Дослід 2</tspan>
                        </text>
                        <g transform="translate(-79 -452) translate(79 452) translate(24 62) translate(266 167)"/>
                        <text fill="#8D9AA9" font-family="Rubik-Regular, Rubik" font-size="12" letter-spacing="-.126" transform="translate(-79 -452) translate(79 452) translate(24 62)">
                            <tspan x=".179" y="21">40</tspan>
                        </text>
                    </g>
                    <g>
                        <text fill="#8D9AA9" font-family="Rubik-Regular, Rubik" font-size="12" letter-spacing="-.126" transform="translate(-79 -452) translate(79 452) translate(24 28)">
                            <tspan x="18" y="11">ВеллВам</tspan>
                        </text>
                        <path fill="#819F2C" d="M5.5 2C8.536 2 11 4.464 11 7.5S8.536 13 5.5 13 0 10.536 0 7.5 2.464 2 5.5 2z" transform="translate(-79 -452) translate(79 452) translate(24 28)"/>
                    </g>
                    <g>
                        <text fill="#8D9AA9" font-family="Rubik-Regular, Rubik" font-size="12" letter-spacing="-.126" transform="translate(-79 -452) translate(79 452) translate(122 28)">
                            <tspan x="18" y="11">Контроль</tspan>
                        </text>
                        <path fill="#B0C3D2" d="M5.5 1C8.536 1 11 3.464 11 6.5S8.536 12 5.5 12 0 9.536 0 6.5 2.464 1 5.5 1z" transform="translate(-79 -452) translate(79 452) translate(122 28)"/>
                    </g>
                </g>
                <path fill="#819F2C" d="M179.5 102c9.665 0 17.5 7.835 17.5 17.5V218h-35v-98.5c0-9.665 7.835-17.5 17.5-17.5zM363.5 89c9.665 0 17.5 7.835 17.5 17.5V218h-35V106.5c0-9.665 7.835-17.5 17.5-17.5z" transform="translate(-79 -452) translate(79 452)"/>
                <path fill="#B0C3D2" d="M219.5 123c9.665 0 17.5 7.835 17.5 17.5V218h-35v-77.5c0-9.665 7.835-17.5 17.5-17.5zM403.5 105c9.665 0 17.5 7.835 17.5 17.5V218h-35v-95.5c0-9.665 7.835-17.5 17.5-17.5z" transform="translate(-79 -452) translate(79 452)"/>
                <g fill="#FFF" font-family="Rubik-Medium, Rubik" font-size="10" font-weight="400" letter-spacing="-.105">
                    <text transform="translate(-79 -452) translate(79 452) translate(170 104)">
                        <tspan x="39.9" y="43">27,1</tspan>
                    </text>
                    <text transform="translate(-79 -452) translate(79 452) translate(170 104)">
                        <tspan x="183.51" y="9">36,2</tspan>
                    </text>
                    <text transform="translate(-79 -452) translate(79 452) translate(170 104)">
                        <tspan x="223.495" y="25">32,3</tspan>
                    </text>
                    <text transform="translate(-79 -452) translate(79 452) translate(170 104)">
                        <tspan x=".16" y="22">32,1</tspan>
                    </text>
                </g>
            </g>
        </g>
    </g>
</svg>
