<svg xmlns="http://www.w3.org/2000/svg" width="26" height="16" viewBox="0 0 26 16">
    <g fill="none" fill-rule="evenodd">
        <g fill="#575656" fill-rule="nonzero">
            <g>
                <g>
                    <g>
                        <g>
                            <path d="M18.284.589l.07.057 7 7 .011.013c.012.012.023.025.033.039l-.044-.052c.026.027.05.056.069.087l.02.035.02.041.014.04c.005.015.009.03.012.046l.006.033.005.052v.04l-.005.052L25.5 8c0 .036-.004.071-.011.105l-.012.046-.015.04c-.005.014-.012.027-.019.04-.006.013-.013.025-.02.036l-.012.017-.013.018c-.01.014-.02.027-.033.04l-.011.012-7 7c-.196.195-.512.195-.708 0-.173-.174-.192-.443-.057-.638l.057-.07L23.793 8.5H1C.724 8.5.5 8.276.5 8c0-.245.177-.45.41-.492L1 7.5h22.793l-6.147-6.146c-.173-.174-.192-.443-.057-.638l.057-.07c.174-.173.443-.192.638-.057z" transform="translate(-433 -1075) translate(368 594) translate(52 463) rotate(-180 26.5 26.5) translate(14 19)"/>
                        </g>
                    </g>
                </g>
            </g>
        </g>
    </g>
</svg>
