<svg xmlns="http://www.w3.org/2000/svg" width="85" height="85" viewBox="0 0 85 85">
    <g fill="none" fill-rule="evenodd">
        <g fill-rule="nonzero">
            <g>
                <g>
                    <path fill="#575656" d="M58.96 78.7l-1.135-2.495c8.142-3.707 14.67-10.235 18.38-18.379l2.495 1.135c-3.984 8.749-10.995 15.758-19.74 19.74zM81.336 51.05l-2.678-.587c.569-2.596.858-5.276.858-7.963 0-20.411-16.605-37.016-37.016-37.016-1.84 0-3.696.137-5.513.407l-.404-2.713c1.95-.29 3.942-.436 5.917-.436 21.922 0 39.758 17.836 39.758 39.758 0 2.885-.311 5.762-.922 8.55zM8.793 27.18L6.3 26.044c4.325-9.505 12.403-17.067 22.158-20.75l.97 2.564C20.341 11.288 12.822 18.33 8.792 27.18zM42.5 82.258c-21.922 0-39.758-17.836-39.758-39.758 0-2.885.311-5.762.922-8.55l2.678.587c-.569 2.596-.858 5.276-.858 7.963 0 20.411 16.605 37.016 37.016 37.016 2.687 0 5.367-.29 7.964-.858l.586 2.678c-2.788.61-5.665.922-8.55.922z" transform="translate(-735 -552) translate(165 460) translate(570 92)"/>
                    <path fill="#575656" d="M42.5 71.29c-12.116 0-23.01-7.658-27.104-19.056l2.581-.927C21.68 61.619 31.537 68.548 42.5 68.548c14.364 0 26.048-11.684 26.048-26.048 0-5.608-1.753-10.95-5.072-15.45l2.206-1.628c3.668 4.975 5.608 10.88 5.608 17.078 0 15.875-12.915 28.79-28.79 28.79zM13.744 43.938c-.024-.477-.034-.955-.034-1.438 0-15.875 12.915-28.79 28.79-28.79 6.2 0 12.104 1.94 17.077 5.61l-1.629 2.206c-4.497-3.32-9.838-5.074-15.448-5.074-14.364 0-26.048 11.684-26.048 26.048 0 .436.01.87.031 1.301l-2.74.137z" transform="translate(-735 -552) translate(165 460) translate(570 92)"/>
                    <path fill="#575656" d="M56.21 38.387c0-3.024-2.46-5.484-5.484-5.484-.678 0-1.319.14-1.92.365-.893-1.84-2.786-3.107-4.935-3.107-.677 0-1.319.14-1.918.365-.894-1.841-2.786-3.107-4.937-3.107-3.024 0-5.484 2.46-5.484 5.484 0 .678.14 1.319.365 1.92-1.84.893-3.107 2.786-3.107 4.935 0 1.489.6 2.875 1.634 3.893-.154.508-.263 1.035-.263 1.59 0 1.298.472 2.476 1.226 3.415-.779.963-1.226 2.168-1.226 3.44 0 3.025 2.46 5.485 5.484 5.485 2.554 0 4.687-1.762 5.295-4.13.063.003.125.017.189.017.677 0 1.32-.14 1.92-.365.893 1.84 2.785 3.107 4.935 3.107 3.024 0 5.484-2.46 5.484-5.484 0-1.681-.784-3.24-2.05-4.266.418-.775.679-1.647.679-2.589 0-.064-.017-.125-.02-.19 2.37-.605 4.133-2.739 4.133-5.294zm-9.597 8.226c-.06 0-.12-.01-.18-.015-.196-.754-.558-1.45-1.046-2.055.754-.94 1.226-2.117 1.226-3.414 1.512 0 2.742 1.23 2.742 2.742s-1.23 2.742-2.742 2.742zm-5.684-2.759c-.369-1.398-1.268-2.572-2.479-3.298.264-1.238 1.364-2.169 2.679-2.169 1.512 0 2.742 1.23 2.742 2.742s-1.23 2.742-2.742 2.742c-.067 0-.133-.012-.2-.017zm-8.026 1.388c0-1.512 1.23-2.742 2.742-2.742s2.742 1.23 2.742 2.742-1.23 2.742-2.742 2.742-2.742-1.23-2.742-2.742zm13.613-10.324c-.63.763-1.053 1.688-1.197 2.715-1.008-1.205-2.501-1.988-4.19-1.988 0-1.512 1.23-2.742 2.742-2.742 1.248 0 2.322.85 2.645 2.015zm-9.5-4.757c1.248 0 2.322.85 2.645 2.015-.704.852-1.15 1.91-1.234 3.078-.423.254-.909.391-1.41.391-1.513 0-2.743-1.23-2.743-2.742s1.23-2.742 2.742-2.742zm-3.47 6.952c.808.667 1.799 1.099 2.894 1.215-.267.447-.473.931-.605 1.448-.065-.001-.126-.018-.19-.018-1.422 0-2.708.558-3.682 1.448-.27-.43-.43-.923-.43-1.448 0-1.248.85-2.322 2.014-2.645zm2.1 17.726c-1.513 0-2.743-1.23-2.743-2.742 0-.664.246-1.292.668-1.784.642.262 1.34.413 2.074.413.244 0 .479-.041.714-.073.472.84 1.15 1.534 1.964 2.022-.268 1.236-1.366 2.164-2.678 2.164zm3.281-5.23c.979-.74 1.699-1.79 2.011-3.011.065.002.127.015.191.015.734 0 1.431-.15 2.072-.412.423.49.67 1.117.67 1.783 0 1.512-1.23 2.742-2.742 2.742-.887 0-1.694-.435-2.202-1.117zm9.057 3.859c-1.248 0-2.322-.85-2.645-2.015.505-.61.88-1.324 1.083-2.115.065.003.127.017.19.017 1.08 0 2.08-.323 2.928-.864.723.506 1.186 1.33 1.186 2.235 0 1.512-1.23 2.742-2.742 2.742zM51.3 41.066c-.727-1.21-1.9-2.111-3.298-2.479-.006-.067-.018-.133-.018-.2 0-1.512 1.23-2.742 2.742-2.742s2.742 1.23 2.742 2.742c0 1.315-.931 2.415-2.168 2.68z" transform="translate(-735 -552) translate(165 460) translate(570 92)"/>
                    <g fill="#F79E1C">
                        <path d="M54.839 85c-3.025 0-5.484-2.46-5.484-5.484s2.46-5.484 5.484-5.484 5.484 2.46 5.484 5.484c0 3.025-2.46 5.484-5.484 5.484zM61.694 28.79c-3.025 0-5.484-2.46-5.484-5.484s2.46-5.483 5.484-5.483 5.483 2.459 5.483 5.483c0 3.025-2.459 5.484-5.483 5.484zM15.08 53.468c-3.024 0-5.483-2.46-5.483-5.484 0-3.025 2.46-5.484 5.484-5.484s5.484 2.46 5.484 5.484-2.46 5.484-5.484 5.484zM5.484 35.645C2.459 35.645 0 33.185 0 30.161s2.46-5.484 5.484-5.484 5.484 2.46 5.484 5.484c0 3.025-2.46 5.484-5.484 5.484zM79.516 60.323c-3.024 0-5.484-2.46-5.484-5.484 0-3.025 2.46-5.484 5.484-5.484 3.025 0 5.484 2.46 5.484 5.484s-2.46 5.484-5.484 5.484zM32.903 10.968c-3.024 0-5.484-2.46-5.484-5.484C27.42 2.459 29.88 0 32.903 0c3.025 0 5.484 2.46 5.484 5.484s-2.46 5.484-5.484 5.484z" transform="translate(-735 -552) translate(165 460) translate(570 92)"/>
                    </g>
                </g>
            </g>
        </g>
    </g>
</svg>
