<svg xmlns="http://www.w3.org/2000/svg" width="85" height="85" viewBox="0 0 85 85">
    <g fill="none" fill-rule="evenodd">
        <g fill-rule="nonzero">
            <g>
                <g>
                    <path fill="#575656" d="M14.111 68.95l1.939 1.939-5.86 5.86c.483.815.778 1.753.778 2.767 0 3.024-2.46 5.484-5.484 5.484S0 82.54 0 79.516s2.46-5.484 5.484-5.484c1.014 0 1.952.295 2.768.778l5.86-5.86zm38.882 3.22l.948 2.572-11.496 4.235c.018.18.055.354.055.54C42.5 82.54 40.04 85 37.016 85s-5.484-2.46-5.484-5.484 2.46-5.484 5.484-5.484c1.865 0 3.51.94 4.5 2.365l11.477-4.228zm18.987 1.365l3.644 2.125c.995-1.004 2.372-1.628 3.892-1.628 3.024 0 5.484 2.46 5.484 5.484S82.54 85 79.516 85s-5.484-2.46-5.484-5.484c0-.515.095-1.005.226-1.476l-3.66-2.136 1.382-2.37zm-34.964 3.24c-1.512 0-2.742 1.229-2.742 2.741s1.23 2.742 2.742 2.742 2.742-1.23 2.742-2.742-1.23-2.742-2.742-2.742zm-31.532 0c-1.512 0-2.742 1.229-2.742 2.741s1.23 2.742 2.742 2.742 2.742-1.23 2.742-2.742-1.23-2.742-2.742-2.742zm74.032 0c-1.512 0-2.742 1.229-2.742 2.741s1.23 2.742 2.742 2.742 2.742-1.23 2.742-2.742-1.23-2.742-2.742-2.742zM43.871 53.467c3.024 0 5.484 2.46 5.484 5.484 0 .393-.045.776-.125 1.146l6.223 3.11-1.227 2.453-6.242-3.12c-1.006 1.151-2.468 1.894-4.113 1.894-2.19 0-4.072-1.3-4.948-3.161l-7.137 1.338-.506-2.695 7.145-1.34c.197-2.846 2.55-5.11 5.446-5.11zm0 2.742c-1.512 0-2.742 1.23-2.742 2.742s1.23 2.742 2.742 2.742 2.742-1.23 2.742-2.742c0-1.513-1.23-2.742-2.742-2.742zm19.194-15.081c3.024 0 5.483 2.46 5.483 5.484 0 2.547-1.753 4.676-4.113 5.29v8.42h-2.741v-8.42c-2.36-.614-4.113-2.743-4.113-5.29 0-3.024 2.46-5.484 5.484-5.484zM5.484 47.984c3.024 0 5.484 2.46 5.484 5.484 0 .515-.095 1.005-.226 1.476l3.66 2.136-1.382 2.37-3.644-2.126c-.995 1.004-2.372 1.628-3.892 1.628C2.46 58.952 0 56.492 0 53.468c0-3.025 2.46-5.484 5.484-5.484zm0 2.742c-1.512 0-2.742 1.23-2.742 2.742s1.23 2.742 2.742 2.742 2.742-1.23 2.742-2.742-1.23-2.742-2.742-2.742zm24.199-24.349l9.22 7.904c.965-.847 2.215-1.378 3.597-1.378 1.257 0 2.403.443 3.33 1.157l8.167-6.351 1.685 2.164-8.152 6.34c.29.667.454 1.4.454 2.174 0 3.024-2.46 5.484-5.484 5.484-.951 0-1.833-.265-2.613-.692l.24.198-10.282 12.34-2.108-1.756L38.02 41.623l.244.202c-.768-.943-1.248-2.13-1.248-3.438 0-.643.132-1.25.336-1.825l-9.453-8.102 1.784-2.083zm33.382 17.494c-1.513 0-2.742 1.23-2.742 2.742s1.23 2.742 2.742 2.742 2.741-1.23 2.741-2.742-1.23-2.742-2.741-2.742zM14.11 27.821l1.939 1.939-5.86 5.86c.483.815.778 1.753.778 2.767 0 3.024-2.46 5.484-5.484 5.484S0 41.411 0 38.387s2.46-5.484 5.484-5.484c1.014 0 1.952.295 2.768.778l5.86-5.86zm56.778 0l5.86 5.86c.815-.483 1.753-.778 2.767-.778 3.024 0 5.484 2.46 5.484 5.484s-2.46 5.484-5.484 5.484-5.484-2.46-5.484-5.484c0-1.014.295-1.952.778-2.768l-5.86-5.86 1.939-1.938zm8.627 7.824c-1.512 0-2.742 1.23-2.742 2.742s1.23 2.742 2.742 2.742 2.742-1.23 2.742-2.742-1.23-2.742-2.742-2.742zm-74.032 0c-1.512 0-2.742 1.23-2.742 2.742s1.23 2.742 2.742 2.742 2.742-1.23 2.742-2.742-1.23-2.742-2.742-2.742zm37.016 0c-1.512 0-2.742 1.23-2.742 2.742s1.23 2.742 2.742 2.742 2.742-1.23 2.742-2.742-1.23-2.742-2.742-2.742zM42.5 0c3.024 0 5.484 2.46 5.484 5.484 0 .641-.132 1.247-.335 1.82l8.069 6.724-1.757 2.106-7.858-6.548c-.967.848-2.218 1.382-3.603 1.382-1.385 0-2.636-.534-3.603-1.382l-7.858 6.548-1.757-2.106 8.069-6.723c-.203-.574-.335-1.18-.335-1.821C37.016 2.46 39.476 0 42.5 0zM5.484 0c3.024 0 5.484 2.46 5.484 5.484 0 1.014-.295 1.952-.778 2.768l5.86 5.86-1.939 1.938-5.86-5.86c-.815.483-1.753.778-2.767.778C2.46 10.968 0 8.508 0 5.484S2.46 0 5.484 0zm74.032 0C82.54 0 85 2.46 85 5.484s-2.46 5.484-5.484 5.484c-1.014 0-1.952-.295-2.768-.778l-5.86 5.86-1.938-1.939 5.86-5.86c-.483-.815-.778-1.753-.778-2.767C74.032 2.46 76.492 0 79.516 0zM5.484 2.742c-1.512 0-2.742 1.23-2.742 2.742s1.23 2.742 2.742 2.742 2.742-1.23 2.742-2.742-1.23-2.742-2.742-2.742zm37.016 0c-1.512 0-2.742 1.23-2.742 2.742s1.23 2.742 2.742 2.742 2.742-1.23 2.742-2.742-1.23-2.742-2.742-2.742zm37.016 0c-1.512 0-2.742 1.23-2.742 2.742s1.23 2.742 2.742 2.742 2.742-1.23 2.742-2.742-1.23-2.742-2.742-2.742z" transform="translate(-165 -552) translate(165 460) translate(0 92)"/>
                    <g fill="#F79E1C">
                        <path d="M10.968 21.935C4.92 21.935 0 17.015 0 10.968 0 4.92 4.92 0 10.968 0c6.047 0 10.967 4.92 10.967 10.968 0 6.047-4.92 10.967-10.967 10.967zM10.968 63.065C4.92 63.065 0 58.145 0 52.097s4.92-10.968 10.968-10.968c6.047 0 10.967 4.92 10.967 10.968 0 6.047-4.92 10.968-10.967 10.968zM52.097 69.92c-6.048 0-10.968-4.921-10.968-10.968 0-6.048 4.92-10.968 10.968-10.968 6.047 0 10.968 4.92 10.968 10.968 0 6.047-4.92 10.967-10.968 10.967zM52.097 21.935c-6.048 0-10.968-4.92-10.968-10.967C41.129 4.92 46.049 0 52.097 0c6.047 0 10.968 4.92 10.968 10.968 0 6.047-4.92 10.967-10.968 10.967z" transform="translate(-165 -552) translate(165 460) translate(0 92) translate(10.968 10.968)"/>
                    </g>
                    <path fill="#575656" d="M64.435 69.92v2.741h-2.741V69.92h2.741zm-39.758-4.114v2.742h-2.742v-2.742h2.742zm38.388-1.37v2.741h-2.742v-2.742h2.742zm-43.871-4.113v2.742h-2.742v-2.742h2.742zm6.854-1.371v2.742h-2.742v-2.742h2.742zm2.742-37.017v2.742h-2.742v-2.742h2.742zm-9.596 0v2.742h-2.742v-2.742h2.742zm41.129 0v2.742H57.58v-2.742h2.742zm-37.017-4.112v2.742h-2.741v-2.742h2.741zm43.871 0v2.742h-2.742v-2.742h2.742z" transform="translate(-165 -552) translate(165 460) translate(0 92)"/>
                </g>
            </g>
        </g>
    </g>
</svg>
