<svg xmlns="http://www.w3.org/2000/svg" width="85" height="85" viewBox="0 0 85 85">
    <g fill="none" fill-rule="evenodd">
        <g fill-rule="nonzero">
            <g>
                <g>
                    <g fill="#F79E1C">
                        <path d="M35.645 17.823c0-5.132 1.678-9.86 4.489-13.71h-.376C28.79 4.113 28.79 0 17.823 0h-.731L1.128 28.17C.39 29.477 0 30.95 0 32.45c0 4.794 3.885 8.679 8.68 8.679h50.272c-12.872 0-23.307-10.434-23.307-23.306z" transform="translate(-450 -552) translate(165 460) translate(285 92) translate(1.371 42.5)"/>
                        <path d="M49.34 31.53c-.678 0-1.36-.07-2.04-.213-3.637-.76-6.584-3.717-7.334-7.358-.786-3.817.753-7.703 3.92-9.901.266-.187.479-.54.366-.858-.252-.721-.381-1.471-.381-2.232 0-2.096.94-4.05 2.58-5.36 1.643-1.309 3.779-1.786 5.862-1.315 2.505.568 4.5 2.56 5.083 5.073.429 1.857.102 3.742-.922 5.306-.201.313-.074.749.16 1.019 1.494 1.737 2.318 3.955 2.318 6.244 0 2.903-1.293 5.619-3.548 7.452-1.725 1.4-3.86 2.143-6.064 2.143zM69.926 31.53c-1.552 0-3.056-.515-4.281-1.493-1.64-1.31-2.58-3.263-2.58-5.36 0-.76.128-1.51.38-2.23.113-.32-.098-.673-.365-.86-3.169-2.197-4.708-6.084-3.92-9.902.75-3.64 3.695-6.597 7.333-7.357 2.893-.604 5.85.097 8.104 1.93 2.254 1.833 3.548 4.55 3.548 7.452 0 2.29-.824 4.507-2.317 6.244-.233.27-.362.708-.159 1.02 1.024 1.563 1.35 3.448.921 5.305-.582 2.514-2.577 4.505-5.083 5.074-.528.119-1.056.178-1.58.178z" transform="translate(-450 -552) translate(165 460) translate(285 92) translate(1.371 42.5)"/>
                    </g>
                    <path fill="#575656" d="M42.5 0c3.024 0 5.484 2.46 5.484 5.484s-2.46 5.484-5.484 5.484V31.17l4.698 8.292c3.807-2.403 8.3-3.817 13.125-3.817C73.929 35.645 85 46.715 85 60.323 85 73.929 73.93 85 60.323 85H10.05C4.509 85 0 80.49 0 74.95c0-1.735.452-3.449 1.307-4.955l22-38.825V10.968c-3.025 0-5.484-2.46-5.484-5.484S20.283 0 23.306 0zm0 2.742H23.306c-1.512 0-2.741 1.23-2.741 2.742s1.23 2.742 2.741 2.742h10.968v2.742h-8.226v20.926L3.692 71.347c-.622 1.095-.95 2.341-.95 3.602 0 4.031 3.28 7.31 7.309 7.31H49.07c-7.959-4.1-13.425-12.385-13.425-21.936 0-7.794 3.643-14.744 9.304-19.27l-5.19-9.159V10.968h-2.743V8.226H42.5c1.512 0 2.742-1.23 2.742-2.742s-1.23-2.742-2.742-2.742zm17.823 35.645c-12.095 0-21.936 9.84-21.936 21.936 0 12.094 9.84 21.935 21.936 21.935 12.094 0 21.935-9.84 21.935-21.935 0-12.095-9.84-21.936-21.935-21.936zM13.71 68.548c2.267 0 4.113 1.846 4.113 4.113 0 2.268-1.846 4.113-4.113 4.113-2.268 0-4.113-1.845-4.113-4.113 0-2.267 1.845-4.113 4.113-4.113zm0 2.742c-.757 0-1.371.616-1.371 1.371 0 .756.614 1.371 1.37 1.371.757 0 1.372-.615 1.372-1.37 0-.756-.615-1.372-1.371-1.372zm37.016-10.967c2.267 0 4.113 1.845 4.113 4.112 0 2.268-1.846 4.113-4.113 4.113-2.268 0-4.113-1.845-4.113-4.113 0-2.267 1.845-4.112 4.113-4.112zm20.564 5.483c.757 0 1.371.614 1.371 1.371 0 .758-.614 1.371-1.37 1.371-.758 0-1.372-.613-1.372-1.37 0-.758.614-1.372 1.371-1.372zm-42.5-8.225c2.268 0 4.113 1.845 4.113 4.113 0 2.267-1.845 4.112-4.113 4.112-2.267 0-4.113-1.845-4.113-4.112 0-2.268 1.846-4.113 4.113-4.113zm21.936 5.484c-.757 0-1.371.615-1.371 1.37 0 .756.614 1.371 1.37 1.371.758 0 1.372-.615 1.372-1.37 0-.756-.614-1.371-1.371-1.371zM28.79 60.323c-.756 0-1.37.615-1.37 1.37 0 .756.614 1.372 1.37 1.372.757 0 1.371-.616 1.371-1.371 0-.756-.614-1.371-1.37-1.371zm41.13-8.226c2.267 0 4.112 1.845 4.112 4.113 0 2.267-1.845 4.113-4.113 4.113-2.267 0-4.113-1.846-4.113-4.113 0-2.268 1.846-4.113 4.113-4.113zm0 2.742c-.757 0-1.372.615-1.372 1.37 0 .756.615 1.372 1.371 1.372.757 0 1.371-.616 1.371-1.371 0-.756-.614-1.371-1.37-1.371zm-17.823-2.742c.757 0 1.37.614 1.37 1.37 0 .758-.613 1.372-1.37 1.372-.757 0-1.371-.614-1.371-1.371s.614-1.371 1.37-1.371zM65.807 0c3.024 0 5.483 2.46 5.483 5.484 0 1.406-.547 2.677-1.421 3.65l7.873 13.12c.56-.191 1.15-.319 1.774-.319 3.024 0 5.484 2.46 5.484 5.484 0 3.025-2.46 5.484-5.484 5.484-2.549 0-4.676-1.755-5.29-4.113h-16.84c-.613 2.358-2.74 4.113-5.29 4.113-3.024 0-5.483-2.46-5.483-5.484s2.46-5.484 5.484-5.484c.624 0 1.214.128 1.774.32l7.873-13.122c-.874-.972-1.421-2.243-1.421-3.65C60.323 2.46 62.783 0 65.806 0zm13.71 24.677c-1.513 0-2.743 1.23-2.743 2.742 0 1.513 1.23 2.742 2.742 2.742s2.742-1.23 2.742-2.742-1.23-2.742-2.742-2.742zm-27.42 0c-1.512 0-2.742 1.23-2.742 2.742 0 1.513 1.23 2.742 2.742 2.742s2.742-1.23 2.742-2.742-1.23-2.742-2.742-2.742zM67.58 10.648c-.559.192-1.15.32-1.774.32-.623 0-1.214-.128-1.774-.32L56.16 23.77c.578.643 1.004 1.417 1.227 2.278h16.84c.226-.86.65-1.635 1.228-2.278zm-1.774-7.906c-1.512 0-2.741 1.23-2.741 2.742s1.23 2.742 2.741 2.742c1.513 0 2.742-1.23 2.742-2.742s-1.23-2.742-2.742-2.742z" transform="translate(-450 -552) translate(165 460) translate(285 92)"/>
                </g>
            </g>
        </g>
    </g>
</svg>
