<svg xmlns="http://www.w3.org/2000/svg" width="85" height="85" viewBox="0 0 85 85">
    <g fill="none" fill-rule="evenodd">
        <g fill-rule="nonzero">
            <g>
                <g>
                    <g fill="#F79E1C">
                        <path d="M34.442 63.065c0 4.542-3.684 8.225-8.226 8.225-4.543 0-8.226-3.683-8.226-8.225 0-4.543 3.683-8.226 8.226-8.226 4.542 0 8.226 3.683 8.226 8.226zM71.458 35.645c0 6.815-5.524 12.339-12.339 12.339S46.78 42.46 46.78 35.645s5.524-12.339 12.339-12.339 12.339 5.524 12.339 12.34zM33.07 10.968c0 5.511-4.057 10.062-9.336 10.844-2.81-2.29-6.334-3.729-10.172-3.962-1.522-1.878-2.427-4.278-2.427-6.882C11.135 4.908 16.043 0 22.103 0S33.07 4.908 33.07 10.968zM24.845 35.645c0 6.815-5.524 12.339-12.339 12.339S.167 42.46.167 35.645s5.524-12.339 12.34-12.339c6.814 0 12.338 5.524 12.338 12.34z" transform="translate(-1020 -552) translate(165 460) translate(855 92) translate(6.683 6.855)"/>
                    </g>
                    <path fill="#575656" d="M84.875 40.314c-.944-8.53-7.783-15.598-16.258-16.807-6.688-.948-13.253 1.551-17.552 6.702-2.155 2.583-5.28 4.065-8.569 4.065-1.645 0-3.25-.37-4.71-1.064 5.43-3.164 8.823-8.959 8.823-15.387C46.609 7.996 38.613 0 28.786 0S10.964 7.996 10.964 17.823c0 2.323.48 4.625 1.355 6.763C5.801 27.113.905 33.199.118 40.314-.487 45.778 1.252 51.24 4.888 55.3c3.637 4.064 8.85 6.395 14.302 6.395.382 0 .758-.04 1.136-.063-1.608 2.442-2.507 5.317-2.507 8.288 0 8.315 6.765 15.081 15.08 15.081 8.315 0 15.08-6.766 15.08-15.08 0-7.999-6.262-14.544-14.14-15.033.026-.029.053-.054.078-.082 2.165-2.593 5.293-4.08 8.579-4.08 3.286 0 6.414 1.487 8.58 4.08 3.658 4.377 9.027 6.889 14.726 6.889 5.452 0 10.665-2.331 14.304-6.395 3.635-4.06 5.374-9.52 4.77-14.985zM28.786 2.742c8.315 0 15.081 6.766 15.081 15.08 0 5.906-3.385 11.174-8.684 13.653-.443-.39-.869-.804-1.256-1.266-4.296-5.15-10.854-7.65-17.551-6.702-.48.068-.954.162-1.423.267-.812-1.878-1.247-3.87-1.247-5.951 0-8.315 6.765-15.081 15.08-15.081zm16.452 67.177c0 6.804-5.536 12.34-12.339 12.34-6.802 0-12.339-5.536-12.339-12.34 0-3.405 1.425-6.662 3.905-8.99 2.29-.656 4.446-1.709 6.346-3.158.688-.117 1.387-.19 2.088-.19 6.803 0 12.339 5.534 12.339 12.338zM78.063 53.47c-3.12 3.484-7.588 5.482-12.26 5.482-4.885 0-9.486-2.153-12.624-5.908-2.687-3.215-6.582-5.06-10.683-5.06-4.1 0-7.996 1.845-10.683 5.06-3.138 3.755-7.739 5.908-12.623 5.908-4.673 0-9.14-1.998-12.26-5.482-3.164-3.531-4.614-8.096-4.086-12.854.808-7.306 6.662-13.36 13.919-14.394 5.743-.82 11.375 1.33 15.058 5.743 2.68 3.21 6.569 5.051 10.675 5.051 4.105 0 7.996-1.84 10.673-5.05 3.685-4.415 9.31-6.565 15.06-5.744 7.257 1.034 13.11 7.088 13.92 14.394.527 4.758-.923 9.323-4.086 12.854zM71.286 85c-5.291 0-9.596-3.69-9.596-8.226 0-4.536 4.305-8.226 9.596-8.226 5.292 0 9.597 3.69 9.597 8.226 0 4.537-4.305 8.226-9.597 8.226zm0-13.71c-3.78 0-6.855 2.46-6.855 5.484 0 3.025 3.076 5.484 6.855 5.484 3.78 0 6.855-2.46 6.855-5.484s-3.075-5.484-6.855-5.484z" transform="translate(-1020 -552) translate(165 460) translate(855 92)"/>
                    <path fill="#575656" d="M69.915 74.032L72.657 74.032 72.657 76.774 69.915 76.774zM57.577 16.452c-5.292 0-9.597-3.69-9.597-8.226C47.98 3.689 52.285 0 57.577 0c5.291 0 9.596 3.69 9.596 8.226 0 4.536-4.305 8.226-9.596 8.226zm0-13.71c-3.78 0-6.855 2.46-6.855 5.484s3.075 5.484 6.855 5.484c3.78 0 6.854-2.46 6.854-5.484 0-3.025-3.075-5.484-6.854-5.484z" transform="translate(-1020 -552) translate(165 460) translate(855 92)"/>
                    <path fill="#575656" d="M56.206 5.484L58.948 5.484 58.948 8.226 56.206 8.226zM60.319 47.984h-2.742c0-3.909 1.616-5.93 3.041-7.712 1.311-1.637 2.442-3.052 2.442-5.998h2.742c0 3.909-1.616 5.93-3.042 7.712-1.31 1.637-2.441 3.052-2.441 5.998zM67.173 50.726h-2.742c0-3.909 1.617-5.929 3.042-7.712 1.311-1.637 2.442-3.052 2.442-5.998h2.742c0 3.909-1.616 5.93-3.042 7.712-1.31 1.637-2.442 3.052-2.442 5.998zM26.044 47.984h-2.742c0-2.946-1.13-4.361-2.442-5.998-1.425-1.782-3.041-3.803-3.041-7.712h2.741c0 2.946 1.132 4.361 2.442 5.998 1.426 1.782 3.042 3.803 3.042 7.712zM19.19 50.726h-2.742c0-2.946-1.132-4.361-2.442-5.998-1.426-1.782-3.042-3.803-3.042-7.712h2.742c0 2.946 1.131 4.361 2.441 5.998 1.426 1.783 3.043 3.803 3.043 7.712zM35.641 17.823H32.9c0-2.268-1.845-4.113-4.113-4.113v-2.742c3.78 0 6.855 3.075 6.855 6.855z" transform="translate(-1020 -552) translate(165 460) translate(855 92)"/>
                </g>
            </g>
        </g>
    </g>
</svg>
