<svg xmlns="http://www.w3.org/2000/svg" width="31" height="61" viewBox="0 0 31 61">
    <g fill="none" fill-rule="evenodd">
        <g fill="#F79E1C">
            <g>
                <g>
                    <path d="M15.769 0c.421 0 .764.343.764.766v.765C17.572.82 19.286.185 22.056.33c.206.012.399.106.534.26.137.155.204.358.188.564-.166 2.143-1.695 6.107-6.244 6.532l-.001 2.505V19.988c.002.027.002.054 0 .08v9.446c.742.136 1.407.3 1.948.452.471.134.913.303 1.34.466.248.096.49.19.734.274V25.51c-1.08-.512-1.842-1.272-2.271-2.27-.903-2.098.072-4.45.113-4.547.124-.288.407-.456.721-.467.544.011 1.029.194 1.437.439v-2.032c0-.423.342-.764.764-.764.423 0 .765.341.765.764v14.413c.677.043 1.429-.067 2.35-.449V15.122c-5.678-1.178-5.208-6.285-5.202-6.34.035-.334.287-.607.62-.67 2.052-.387 3.6-.053 4.583.33v-.92c0-.424.342-.767.765-.767.424 0 .766.343.766.766v3.714c1.036-.722 2.758-1.373 5.558-1.229.206.012.397.106.534.26.135.155.202.358.188.564-.166 2.147-1.703 6.125-6.278 6.533l-.001 3.405c1.034-1.08 2.723-2.224 5.41-2.69.213-.035.434.02.603.153.17.133.275.332.292.55.188 2.764-.915 8.109-6.305 9.262v1.94c1.77-.53 3.73-.484 5.174-.325.26.027.485.186.602.42.117.234.106.51-.03.735l-2.738 4.553v3.508c.744 1.44 5.327 10.807 1.835 16.74-.786 1.335-1.913 2.388-3.373 3.154h7.187c.423 0 .765.343.765.766s-.342.766-.765.766H5.764c-.421 0-.764-.343-.764-.766s.343-.766.764-.766h7.189c-1.462-.766-2.59-1.819-3.375-3.154-3.493-5.933 1.09-15.3 1.837-16.74v-3.508l-2.548-4.234c-.112-.186-.139-.412-.076-.617.063-.21.213-.38.408-.471 1.816-.845 3.932-.937 5.803-.749v-5.083c-4.55-.43-6.077-4.391-6.244-6.533-.015-.204.053-.408.188-.563.137-.155.33-.249.535-.26 2.767-.144 4.481.49 5.521 1.203V14.93c-5.39-1.154-6.495-6.498-6.305-9.263.015-.217.12-.416.29-.55.171-.133.389-.187.604-.151 2.689.466 4.377 1.61 5.412 2.69V.766c0-.423.343-.766.766-.766zm11.97 39.826h-15.09c-.934 1.9-4.648 10.098-1.75 15.016 1.502 2.55 4.633 3.87 9.305 3.926 4.652-.056 7.783-1.377 9.286-3.926 2.897-4.918-.817-13.116-1.751-15.016zm-7.287 1.151c2.077.743 3.526 3.18 3.526 5.925 0 2.516-1.216 4.774-3.018 5.707v1.698c0 .423-.345.764-.766.764-.422 0-.764-.341-.764-.764V52.61c-1.803-.932-3.02-3.191-3.02-5.708 0-2.745 1.449-5.182 3.525-5.925.167-.06.351-.06.517 0zm-.258 1.546c-1.34.643-2.255 2.393-2.255 4.38 0 1.58.579 3.012 1.49 3.855v-3.282c0-.424.343-.766.765-.766.421 0 .766.342.766.766v3.28c.91-.843 1.488-2.274 1.488-3.854 0-1.986-.914-3.736-2.254-4.379zm7.25-6.605h-14.5v2.381h14.5v-2.381zm-16.795-4.794l1.963 3.265h15.163l1.985-3.3c-1.367-.046-2.946.08-4.228.693-.016.009-.032.016-.05.023l.048-.022c-2.886 1.381-4.679.69-6.262.079-.411-.158-.8-.31-1.2-.422-.551-.155-1.4-.366-2.39-.514l.09.007c-.04 0-.081-.003-.12-.01-1.525-.226-3.38-.3-5 .2zm20.09-11.342c-3.494.913-4.57 3.171-4.773 3.684l.001 3.004c3.994-1.045 4.675-4.91 4.772-6.688zm-11.125.112c-.173.67-.34 1.784.08 2.75.187.432.471.793.86 1.09l.002-3.056c-.204-.247-.549-.593-.942-.784zm-9.19-1.528c.324 1.345 1.36 3.93 4.578 4.306l.001-2.479c-.228-.403-1.253-1.79-4.58-1.827zm20.16-6.851c-3.552.038-4.48 1.615-4.618 1.895l.002 2.417c3.264-.362 4.298-2.962 4.616-4.312zM20.75 9.522c.068 1.076.602 3.259 3.683 4.03v-3.428c-.528-.298-1.77-.824-3.683-.602zM10.229 6.67c.098 1.778.78 5.644 4.773 6.688l.001-3.002c-.201-.51-1.275-2.771-4.774-3.686zm10.889-4.83c-3.348.036-4.366 1.437-4.586 1.833l.001 2.474c3.24-.374 4.268-2.961 4.585-4.307z" transform="translate(-1054 -152) translate(81 152) translate(968 .436)"/>
                </g>
            </g>
        </g>
    </g>
</svg>
