<svg xmlns="http://www.w3.org/2000/svg" width="37" height="53" viewBox="0 0 37 53">
    <g fill="none" fill-rule="evenodd">
        <g fill="#F79E1C">
            <g>
                <g>
                    <path d="M79.183.031c.174.055 4.289 1.386 6.312 5.476 1.427 2.883 1.439 6.367.038 10.358l-.076-.227c.203.604.388 1.2.555 1.789 1.046-1.973 3.234-5.214 7.057-7.272.336-.18.754-.055.935.28.181.336.055.756-.28.937-4.965 2.673-6.974 7.646-7.175 8.17.857 3.804 1.012 7.109.967 9.385.278-.443.585-.888.922-1.33l.03.229c-.614-4.249.858-8.125 3.94-10.37 3.225-2.346 9.152-3.646 12.834-1.839.205.1.346.294.38.52.588 4.06-2.47 9.3-5.695 11.647-1.685 1.227-3.687 1.846-5.786 1.846-1.554 0-3.161-.34-4.733-1.023-1.9 2.553-2.717 5.214-3.037 6.59 5.638.184 10.612 2.124 12.961 5.074h.636v-3.05c-1.11-.71-1.784-1.92-1.784-3.25 0-1.478.832-2.806 2.17-3.466.193-.095.418-.095.612 0 1.337.66 2.17 1.988 2.17 3.467 0 1.33-.675 2.54-1.785 3.25l-.001 3.049h3.654c.38 0 .69.31.69.692 0 .38-.31.69-.69.69L89.01 41.65c.505.536 1.078 1.247 1.608 2.139h14.387c.38 0 .69.31.69.692 0 .38-.31.69-.69.69l-13.679-.001c.276.633.518 1.332.703 2.098h12.976c.38 0 .69.31.69.691 0 .382-.31.691-.69.691h-12.72c.089.67.132 1.382.12 2.138h12.6c.38 0 .69.31.69.69 0 .382-.31.69-.69.69h-13.32c-.191 0-.373-.078-.503-.218-.131-.14-.198-.325-.186-.515.077-1.21-.004-2.3-.19-3.278-.013-.04-.022-.083-.026-.127-.244-1.22-.651-2.258-1.115-3.123-.048-.058-.086-.125-.112-.199-.787-1.404-1.708-2.322-2.259-2.795l-.15-.125c-.066-.054-.124-.1-.173-.137h-3.316c1.527 1.624 3.683 4.842 3.363 9.871-.022.366-.327.647-.688.647-.425-.025-.713-.354-.69-.734.387-6.067-3.201-9.159-4.024-9.784h-3.316c1.528 1.624 3.684 4.842 3.364 9.871-.024.366-.328.647-.69.647-.424-.025-.713-.354-.689-.734.383-6.021-3.224-9.163-4.027-9.784h-3.314c1.528 1.624 3.683 4.842 3.363 9.871-.022.366-.327.647-.688.647-.425-.025-.713-.354-.69-.734.348-5.46-2.523-8.511-3.7-9.522l-.15-.125c-.067-.054-.125-.1-.174-.137h-1.213c-.382 0-.691-.309-.691-.69 0-.381.31-.69.691-.69l1.959-.001c2.398-3.01 7.527-4.97 13.307-5.083.145-.677.427-1.774.942-3.067l.014.069c-.47-2.683-3.542-3.838-4.43-4.119-1.302.712-2.676 1.07-4.009 1.07-1.275 0-2.512-.327-3.615-.985-2.47-1.473-5.008-5.04-4.852-8.007.012-.227.136-.435.33-.552 2.535-1.546 6.882-1.006 9.35.466 2.27 1.354 3.577 3.876 3.548 6.802.94.334 2.686 1.109 3.876 2.571.093-2.79-.095-7.608-1.835-12.973-.944-.206-2.945-.875-4.507-2.978-2.13-2.867-2.625-7.217-1.47-12.93.039-.194.158-.359.325-.459.17-.1.373-.123.56-.065zm6.308 36.532c-4.908 0-9.468 1.45-11.95 3.709h23.901c-2.481-2.259-7.043-3.709-11.951-3.709zm15.169-4.644c-.683.463-1.096 1.222-1.096 2.053 0 .832.413 1.59 1.096 2.05.683-.46 1.093-1.218 1.093-2.05 0-.831-.41-1.59-1.093-2.053zm-7.44-13.346c-2.573 1.873-3.842 5.102-3.432 8.692 3.29 1.49 6.752 1.275 9.326-.597 2.742-1.996 5.455-6.493 5.182-9.965-3.22-1.324-8.334-.124-11.075 1.87zm-22.835 2.024c.108 2.309 2.214 5.199 4.181 6.373 1.837 1.096 4.164 1.041 6.289-.127.02-2.426-1.039-4.497-2.875-5.594-1.968-1.174-5.51-1.652-7.595-.652zm9.112-18.952c-.871 4.906-.407 8.61 1.38 11.015 1.198 1.612 2.696 2.2 3.471 2.406 1.155-3.482 1.125-6.49-.09-8.946-1.286-2.597-3.587-3.934-4.761-4.475z" transform="translate(-1256 -158) translate(81 152) translate(1106 6.436)"/>
                </g>
            </g>
        </g>
    </g>
</svg>
