<svg xmlns="http://www.w3.org/2000/svg" width="48" height="62" viewBox="0 0 48 62">
    <g fill="none" fill-rule="evenodd">
        <g fill="#F79E1C">
            <g>
                <g>
                    <path d="M45.023 61.682c-.446 0-.807-.361-.807-.805 0-.446.361-.807.807-.807h9.676V45.55l-5.18-4.576c-.335-.295-.366-.805-.072-1.138.297-.333.805-.364 1.138-.071l4.114 3.633v-9.015c0-.444.361-.805.807-.805.446 0 .807.36.807.805V60.07h3.628V28.433c0-.445.36-.806.807-.806.445 0 .806.36.806.806v19.493l6.867-9.379c.264-.359.768-.439 1.127-.173.36.262.437.765.174 1.124l-8.168 11.157v9.415h2.78v-1.673c0-.444.361-.805.807-.805.444 0 .805.36.805.805l-.001 1.673h3.773v-6.525c0-.446.36-.806.805-.806.446 0 .807.36.807.806l-.001 6.525h5.317c.446 0 .806.361.806.807 0 .444-.36.805-.806.805H45.023zM51.823 0c.088 0 .175.002.262.005L51.824 0c.126 0 .251.003.377.01.059.002.117.006.176.01l.104.008.133.013.163.019.086.012c1.843.253 3.53 1.175 4.743 2.594 1.171-.81 2.56-1.249 3.993-1.249 2.169 0 4.16.977 5.478 2.622l.031.035c.123.154.238.313.347.476 1.27-.753 2.71-1.149 4.2-1.149 4.587 0 8.316 3.73 8.316 8.314 0 1.234-.277 2.454-.81 3.57 2.426 1.686 4.028 4.48 4.068 7.644l.001.12-.002.086-.002.183c-.004.166-.013.33-.026.494-.308 3.855-2.925 7.09-6.538 8.238-.028.007-.055.016-.082.025l-.083.025c-.066.02-.133.04-.2.058l-.041.01c-.169.047-.34.088-.512.125.172.777.26 1.573.26 2.374 0 3.408-1.552 6.553-4.261 8.63-.354.27-.86.202-1.13-.152-.27-.352-.203-.858.15-1.129 2.306-1.767 3.63-4.447 3.63-7.349 0-.736-.087-1.465-.259-2.177-.118.005-.235.007-.352.007-1.092 0-2.163-.185-3.184-.551-.42-.15-.639-.61-.488-1.03.151-.419.613-.637 1.03-.486.847.302 1.735.456 2.642.456.283 0 .562-.015.837-.044.008-.004.018-.005.027-.006.487-.054.96-.15 1.413-.288l.087-.026-.087.026c.058-.017.116-.035.173-.054l-.086.028c3.17-1.006 5.473-3.975 5.473-7.472 0-.119-.003-.236-.008-.353-.121-2.65-1.6-5.092-3.92-6.433l-.05-.033c-1.14-.648-2.457-1.018-3.859-1.018-.445 0-.805-.36-.805-.806 0-.446.36-.807.805-.807 1.419 0 2.765.314 3.974.877.397-.867.605-1.81.605-2.762 0-3.696-3.007-6.702-6.705-6.702-1.234 0-2.42.335-3.467.974.295.785.449 1.623.449 2.469 0 .09-.002.178-.005.267-.018.433-.375.773-.805.773-.477-.019-.822-.393-.807-.84.004-.065.005-.133.005-.2 0-.82-.178-1.609-.521-2.33-.019-.022-.033-.047-.046-.073-.924-1.864-2.787-3.025-4.86-3.025-1.106 0-2.18.34-3.083.969.426.785.719 1.654.844 2.58.06.439-.25.845-.69.906-.443.062-.847-.25-.907-.69-.336-2.473-2.178-4.436-4.52-5.01-.028-.008-.055-.015-.082-.02l.082.02c-.073-.018-.147-.035-.221-.05l.139.03c-.077-.019-.155-.035-.233-.05l.094.02c-.076-.016-.153-.03-.23-.043l.136.024c-.085-.016-.171-.03-.257-.043l.121.02c-.078-.014-.158-.025-.237-.035l.116.015-.239-.029.123.014c-.08-.01-.16-.018-.24-.025l.117.011c-.09-.009-.182-.016-.273-.021l.155.01c-.08-.006-.161-.011-.243-.015l-.247-.005c-3.306 0-5.996 2.689-5.996 5.995l.006.277.007.118c.003.057.008.114.013.17l-.013-.17c.006.09.014.18.024.27l-.011-.1c.009.096.02.19.034.285l-.023-.184c.01.1.025.2.04.299l-.017-.115c.019.134.043.267.07.398l-.052-.283c.019.118.042.236.068.352l-.015-.069c.02.095.043.188.067.281l-.052-.212c.023.103.049.204.077.305l-.025-.093c.112.42.271.83.476 1.225l.014.035c.54 1.026 1.374 1.893 2.428 2.47.389.215.531.704.318 1.094-.148.267-.423.418-.708.418-.13 0-.262-.031-.387-.099-1.188-.652-2.158-1.595-2.839-2.712-1.173.121-2.258.634-3.094 1.47-1.539 1.539-1.927 3.823-1.04 5.758.882-.335 1.839-.518 2.837-.518.602 0 1.2.068 1.78.198.433.099.705.53.608.964-.1.436-.529.706-.966.61-.461-.107-.94-.16-1.422-.16-.991 0-1.93.225-2.769.627-.02.016-.041.028-.064.039-.603.297-1.144.678-1.612 1.124-.943.906-1.61 2.096-1.864 3.43l-.019.098.019-.097c-.015.079-.029.158-.04.238l.021-.141c-.012.075-.024.151-.034.227l.012-.086-.03.224.018-.138c-.014.1-.025.199-.034.299l.017-.16c-.01.079-.017.158-.023.238l.006-.078-.011.146.005-.068c-.007.083-.011.165-.015.249l.01-.181c-.01.143-.014.286-.014.43 0 .248.014.493.041.734l.002.011-.002-.011c.008.069.017.138.027.206l.013.084-.013-.084c.012.083.026.165.041.246l-.028-.162c.016.097.034.193.054.289l-.026-.127c.012.063.024.126.038.188l-.012-.061c.374 1.794 1.5 3.316 3.033 4.22.394.232.818.423 1.267.57l.028.012c.617.198 1.275.305 1.958.305.905 0 1.78-.186 2.6-.548.407-.182.88.003 1.063.41.179.405-.004.882-.411 1.062-1.027.457-2.121.687-3.252.687-.592 0-1.168-.064-1.723-.186-.298.953-.445 1.932-.445 2.922 0 4.658 3.297 8.752 7.843 9.735.434.094.71.524.617.96-.083.376-.418.634-.789.634-.055 0-.113-.005-.17-.019-5.281-1.143-9.115-5.899-9.115-11.31 0-1.16.177-2.31.527-3.425-.16-.071-.319-.148-.474-.23l-.138-.073-.071-.041c-2.125-1.19-3.596-3.284-3.988-5.697l-.016-.105c-.01-.057-.017-.115-.024-.172l-.014-.116-.011-.106c-.005-.042-.008-.085-.012-.129-.004-.047-.008-.095-.01-.143-.012-.175-.018-.352-.018-.53 0-.184.006-.367.019-.548.15-2.25 1.224-4.29 2.947-5.682l.019-.014-.019.014.12-.095c.213-.167.436-.324.666-.47-1.197-2.548-.696-5.58 1.342-7.616.971-.97 2.192-1.61 3.524-1.856-.038-.106-.071-.213-.102-.32l.103.32c-.046-.132-.087-.264-.125-.398-.02-.07-.038-.142-.056-.213l-.037-.155-.034-.16c-.061-.298-.104-.6-.127-.907l-.01-.138-.007-.15c-.005-.105-.007-.21-.007-.314C44.216 3.412 47.628 0 51.824 0zm-.032 20.755c2.183 0 3.958 1.776 3.958 3.96 0 2.182-1.775 3.956-3.958 3.956-1.516 0-2.874-.845-3.549-2.203-.196-.399-.033-.883.366-1.079.399-.2.881-.034 1.079.365.4.806 1.207 1.306 2.104 1.306 1.294 0 2.348-1.053 2.348-2.345 0-1.296-1.054-2.347-2.348-2.347-.644 0-1.244.255-1.69.72-.31.319-.818.328-1.14.02-.32-.308-.33-.82-.02-1.139.753-.782 1.766-1.214 2.85-1.214zm15.58-2.479c1.693 0 3.072 1.38 3.072 3.074 0 .347-.057.687-.17 1.014-.147.42-.605.642-1.026.495-.42-.148-.642-.607-.495-1.029.054-.152.08-.315.08-.48 0-.807-.654-1.462-1.46-1.462-.805 0-1.46.655-1.46 1.462 0 .518.266.988.714 1.256.383.227.508.721.28 1.104-.152.254-.419.394-.693.394-.14 0-.283-.038-.413-.113-.926-.553-1.502-1.564-1.502-2.641 0-1.695 1.379-3.074 3.074-3.074zM57.81 11.05c.089 0 .177.006.262.014.444.042.769.436.725.878-.041.444-.442.761-.88.727-.653-.068-1.25.468-1.25 1.136 0 .63.512 1.143 1.143 1.143.628 0 1.142-.514 1.142-1.143 0-.446.36-.807.806-.807.446 0 .805.361.805.807 0 1.517-1.235 2.754-2.753 2.754-1.519 0-2.756-1.237-2.756-2.754 0-1.52 1.237-2.755 2.756-2.755z" transform="translate(-666 -152) translate(81 152) translate(549.5)"/>
                </g>
            </g>
        </g>
    </g>
</svg>
