<svg xmlns="http://www.w3.org/2000/svg" width="53" height="57" viewBox="0 0 53 57">
    <g fill="none" fill-rule="evenodd">
        <g fill="#F79E1C">
            <g>
                <g>
                    <path d="M60.744 0c.414 0 .75.336.75.75v6.408c0 1.014-.181 2.005-.525 2.933.03.009.06.02.09.034.264.122.435.389.435.68v2.164c0 1.013-.181 2.004-.525 2.932.03.009.06.02.09.033.264.123.435.39.435.682v2.163c0 1.014-.181 2.005-.525 2.933.03.009.06.02.09.034.264.12.435.387.435.68v2.163c0 1.014-.181 2.005-.526 2.933.03.008.06.02.09.034.265.122.436.387.436.68v2.162c0 2.472-1.078 4.81-2.959 6.415l-9.039 7.716v4.024H77v-3.634l-7.535-6.433c-1.603-1.367-2.523-3.361-2.523-5.47v-1.814c0-.282.16-.538.408-.667-.267-.758-.408-1.565-.408-2.39v-1.813c0-.282.16-.54.41-.668-.269-.758-.41-1.566-.41-2.391V21.46c0-.282.16-.54.41-.668-.269-.757-.41-1.565-.41-2.39V16.59c0-.284.16-.542.41-.67-.269-.757-.41-1.564-.41-2.39V8.158c0-.413.336-.75.751-.75.413 0 .749.337.749.75l-.001 3.212L77 18.676v-6.958c0-.415.337-.75.75-.75.415 0 .75.335.75.75v6.958l8.559-7.306V8.157c0-.413.336-.75.75-.75s.75.337.75.75v5.374c0 .825-.14 1.632-.408 2.391l-.028-.015c.267.123.436.39.436.683v1.813c0 .824-.14 1.63-.408 2.39l-.028-.014c.267.123.436.389.436.681v1.813c0 .825-.141 1.633-.409 2.392l-.027-.014c.267.122.436.389.436.681v1.813c0 .825-.14 1.632-.408 2.391l-.028-.015c.267.124.436.389.436.681v1.815c0 2.108-.92 4.1-2.521 5.469L78.5 44.919v3.634l9.308.001c.415 0 .751.336.751.749 0 .415-.336.75-.75.75h-1.957c1.01 1.088 2.015 2.861 1.845 5.538-.026.397-.355.702-.749.702-.46-.028-.775-.384-.75-.798.229-3.567-2.14-5.116-2.724-5.442h-3.358c1.01 1.088 2.015 2.861 1.845 5.538-.025.397-.355.702-.749.702-.461-.028-.774-.384-.747-.798.226-3.567-2.142-5.116-2.726-5.442H74.38c1.01 1.088 2.015 2.861 1.845 5.538-.024.397-.355.702-.747.702-.462-.028-.777-.384-.751-.798.228-3.567-2.14-5.116-2.724-5.442h-3.359c1.01 1.088 2.015 2.861 1.845 5.538-.025.397-.355.702-.747.702-.462-.028-.775-.384-.749-.798.226-3.567-2.142-5.116-2.726-5.442H62.91c1.01 1.088 2.014 2.861 1.844 5.538-.024.397-.355.702-.747.702-.462-.028-.777-.384-.75-.798.227-3.567-2.141-5.116-2.725-5.442h-3.358c1.01 1.088 2.015 2.861 1.844 5.538-.024.397-.355.702-.747.702-.462-.028-.775-.384-.749-.798.226-3.567-2.142-5.116-2.726-5.442H51.44c1.01 1.088 2.014 2.861 1.845 5.538-.026.397-.357.702-.75.702-.461-.028-.774-.384-.748-.798.226-3.567-2.142-5.116-2.726-5.442h-3.357c1.01 1.088 2.014 2.861 1.843 5.538-.024.397-.353.702-.745.702-.464-.028-.777-.384-.75-.798.225-3.567-2.141-5.116-2.726-5.442H39.97c1.01 1.088 2.014 2.861 1.845 5.538-.026.397-.356.702-.75.702-.46-.028-.774-.384-.747-.798.226-3.567-2.142-5.116-2.727-5.442h-.842c-.413 0-.749-.335-.749-.75 0-.413.336-.749.749-.749l11.248-.001v-4.022l-9.04-7.718C37.078 35.21 36 32.871 36 30.398v-2.161c0-.294.171-.559.436-.681l.09-.034c-.344-.928-.526-1.92-.526-2.933v-2.164c0-.292.171-.558.436-.68l.09-.033c-.344-.928-.526-1.92-.526-2.933v-2.163c0-.293.171-.559.436-.682l.089-.033c-.344-.928-.525-1.919-.525-2.932v-2.163c0-.292.171-.559.436-.681l.089-.035C36.18 9.163 36 8.172 36 7.158V.75c0-.415.336-.751.749-.751.415 0 .75.336.75.75V4.65l10.498 8.961V4.995c0-.414.336-.75.75-.75s.75.336.75.75l-.001 8.613 10.496-8.959V.751c0-.415.337-.751.752-.751zm26.315 32.83L78.5 40.135v2.81l6.562-5.601c1.27-1.082 1.997-2.66 1.997-4.328v-.188zm-18.617 0v.187c0 1.667.73 3.246 1.997 4.328L77 42.946v-2.81l-8.559-7.307zm-8.45-2.968l-10.495 8.961v3.734l8.065-6.885c1.545-1.32 2.43-3.241 2.43-5.274v-.536zm-22.492 0v.536c0 2.033.886 3.954 2.432 5.274l8.065 6.885v-3.734L37.5 29.863zm49.56-1.904l-8.56 7.306v2.812l6.562-5.602c1.27-1.083 1.997-2.66 1.997-4.33v-.186zm-18.618 0v.187c0 1.669.73 3.246 1.997 4.33l6.562 5.6v-2.811l-8.559-7.306zm-8.45-3.905l-10.495 8.959v3.734l8.065-6.884c1.545-1.32 2.43-3.241 2.43-5.273v-.536zm-22.492 0v.536c0 2.032.886 3.953 2.432 5.273l8.065 6.884v-3.734L37.5 24.052zm49.56-.967l-8.56 7.306v2.812l6.562-5.602c1.27-1.083 1.997-2.662 1.997-4.33v-.186zm-18.618 0v.187c0 1.67.73 3.246 1.997 4.33l6.562 5.6v-2.811l-8.559-7.306zm-8.45-4.843l-10.495 8.96v3.733l8.065-6.885c1.545-1.319 2.43-3.241 2.43-5.272v-.536zm-22.492 0v.536c0 2.032.886 3.953 2.432 5.272l8.065 6.885v-3.734L37.5 18.242zm49.56-.028l-8.56 7.307v2.81l6.562-5.601c1.27-1.084 1.997-2.66 1.997-4.328v-.188zm-18.618 0v.188c0 1.667.73 3.246 1.997 4.328L77 28.332v-2.81l-8.559-7.307zm-8.45-5.784l-10.495 8.961v3.734l8.065-6.885c1.545-1.319 2.43-3.241 2.43-5.272v-.538zm-22.492 0v.538c0 2.03.886 3.953 2.432 5.272l8.065 6.885v-3.734L37.5 12.432zm49.56.913L78.5 20.65v2.812l6.562-5.602c1.27-1.083 1.997-2.662 1.997-4.33v-.186zm-18.618 0v.187c0 1.667.73 3.246 1.997 4.33L77 23.46V20.65l-8.559-7.306zm-8.45-6.722l-10.495 8.96v3.734l8.065-6.885c1.545-1.318 2.43-3.241 2.43-5.273v-.536zm-22.492 0v.536c0 2.032.886 3.955 2.432 5.273l8.065 6.885v-3.733L37.5 6.622z" transform="translate(-283 -154) translate(81 152) translate(166 2.345)"/>
                </g>
            </g>
        </g>
    </g>
</svg>
