<svg xmlns="http://www.w3.org/2000/svg" width="38" height="55" viewBox="0 0 38 55">
    <g fill="none" fill-rule="evenodd">
        <g fill="#F79E1C">
            <g>
                <g>
                    <path d="M27.745 53.819c-.395 0-.714-.318-.714-.713 0-.393.32-.713.714-.713h9.246V48.98c-3.934-.327-7.123-1.823-9.31-4.354-3.013-3.483-4.184-8.832-3.479-15.902.731-7.335-5.03-16.423-5.09-16.514-.15-.236-.15-.537 0-.77.153-.236.426-.365.703-.322 2.698.386 5.062 1.262 7.118 2.415C28.959 5.156 33.039 0 37.704 0c4.666 0 8.746 5.156 10.773 13.532 2.054-1.152 4.419-2.028 7.116-2.414.286-.043.57.096.718.346.146.249.127.564-.05.794-.07.092-7.048 9.354-5.078 16.343 1.471 5.221.723 10.254-2.106 14.173-2.544 3.525-6.488 5.808-10.659 6.205v3.414h9.586c.395 0 .714.32.714.713 0 .395-.32.713-.714.713H27.745zm-6.616-41.007c1.64 2.912 5.106 9.906 4.494 16.055-.664 6.663.391 11.65 3.136 14.827 1.955 2.26 4.722 3.557 8.232 3.86l.001-20.147c-.507-1.238-5.272-12.173-15.863-14.595zm32.98.039C46.75 14.606 42.24 20.458 40.03 24.218c-.416.709-.75 1.343-1.008 1.862l-.038.078c-.147.3-.267.558-.361.767l-.112.254-.079.186c-.007.018-.01.029-.015.038V47.55c3.639-.385 7.25-2.49 9.502-5.61 2.57-3.56 3.241-8.16 1.89-12.95-1.69-5.997 2.316-13.117 4.298-16.14zm-7.074 19.515c.392.03.686.372.656.765-.64 8.396-5.065 10.034-5.254 10.099-.077.026-.157.04-.235.04-.295 0-.571-.184-.673-.478-.129-.371.065-.775.434-.907.167-.063 3.744-1.49 4.306-8.863.03-.393.367-.688.766-.656zM26.483 18.551c.121.19 2.962 4.753 1.617 10.633-.075.33-.37.555-.696.555-.052 0-.106-.005-.16-.019-.384-.087-.623-.47-.536-.853 1.215-5.306-1.403-9.508-1.43-9.551-.211-.332-.113-.772.22-.984.332-.21.774-.112.985.22zm9.387 3.69l.032.049c.642 1 1.15 1.918 1.536 2.675l.182.364c.03.058.057.115.084.171.411-.85 1.016-1.99 1.835-3.26-.598.034-1.204.05-1.817.05-.612 0-1.23-.016-1.852-.05zm5.435-5.828l-.206.025c-1.194.132-2.357.187-3.467.187-1.253 0-2.439-.07-3.53-.181-.059.845-.11 1.73-.151 2.656l-.019.458c.324.4.629.798.915 1.19.036-.004.074-.004.113 0 1.923.16 3.812.155 5.615-.014.282-.388.582-.78.901-1.175l.003.044c-.046-1.119-.104-2.182-.174-3.19zm4.089-.789l-.106.03c-.866.234-1.727.418-2.577.56.049.658.087 1.263.117 1.797.77-.82 1.624-1.628 2.566-2.387zm-15.104.226l.094.078c.797.668 1.528 1.37 2.197 2.08v-.021c.03-.512.067-1.09.112-1.715-.894-.126-1.702-.274-2.403-.422zm10.564-4.147l-.156.02c-1.033.115-2.039.163-2.999.163-1.119 0-2.177-.065-3.145-.168-.128 1.011-.242 2.103-.341 3.276 2.052.21 4.452.275 6.98-.02-.098-1.171-.212-2.26-.339-3.27zm-11.6-1.026l-.075.214c-.319.94-.608 1.94-.862 2.99.764.222 2.37.641 4.49.942.09-1.033.201-2.148.34-3.286-1.87-.283-3.261-.667-3.894-.86zm16.832-.2l.465-.176c-1.437.565-2.883.95-4.295 1.198.14 1.133.252 2.244.341 3.276 1.461-.248 2.95-.625 4.427-1.171-.277-1.104-.59-2.148-.938-3.127zm-6.102-3.892l-.206.024c-.736.077-1.454.11-2.14.11-.785 0-1.53-.043-2.218-.11-.238 1.052-.467 2.276-.673 3.675 1.737.18 3.77.24 5.913-.005-.206-1.407-.436-2.636-.676-3.694zm-8.489-.707l-.026.042c-.622.996-1.198 2.14-1.713 3.415.614.18 1.889.515 3.58.77.18-1.254.394-2.508.651-3.683-1.108-.177-1.975-.397-2.492-.544zm12.315-.163l-.394.135c-.673.218-1.344.388-2.008.517.262 1.18.48 2.443.66 3.709 1.16-.205 2.338-.506 3.507-.931-.531-1.287-1.124-2.436-1.765-3.43zm-6.106-4.287c-.482 0-1.224 1.198-1.932 3.767 1.159.102 2.477.128 3.862-.014-.687-2.486-1.406-3.683-1.888-3.75l-.042-.003zm-2.284.557l-.142.072c-1.026.538-2.007 1.41-2.91 2.572.492.123 1.16.268 1.958.39.31-1.164.673-2.206 1.094-3.034zm4.57 0l.005.012c.413.816.769 1.836 1.076 2.975.62-.115 1.246-.27 1.87-.47-.917-1.151-1.912-2.005-2.951-2.517z" transform="translate(-100 -155) translate(81 152) translate(0 3.436)"/>
                </g>
            </g>
        </g>
    </g>
</svg>
