<svg xmlns="http://www.w3.org/2000/svg" width="51" height="55" viewBox="0 0 51 55">
    <g fill="none" fill-rule="evenodd">
        <g fill="#F79E1C">
            <g>
                <g>
                    <path d="M43.99 5.456c.05.049.096.1.142.153 1.685-1.049 3.834-.905 5.187.448 1.352 1.35 1.496 3.5.447 5.185.053.046.103.093.152.142.696.695 1.054 1.64 1.011 2.658-.044.995-.47 1.944-1.197 2.672-.035.034-.07.07-.106.1 1.582 1.581 1.488 4.16-.152 5.801-1.471 1.47-3.702 1.696-5.247.622-.721.459-1.527.688-2.313.688-.996 0-1.963-.367-2.697-1.1-.264-.263-.484-.566-.658-.9-1.616.109-3.182.497-4.194.795l-.112.035c2.74 3.545 2.486 8.676-.765 11.927-.65.65-1.397 1.197-2.216 1.624L8.068 53.2c-.807.783-1.856 1.175-2.903 1.175-1.068 0-2.134-.407-2.945-1.218C1.432 52.368 1 51.323 1 50.21c0-1.093.416-2.12 1.177-2.904L13.153 32.23l.014-.02 5.902-8.107c.427-.82.973-1.566 1.623-2.216 3.251-3.25 8.381-3.505 11.927-.765l.035-.112c.298-1.012.686-2.578.796-4.194-.336-.173-.636-.394-.902-.658-1.311-1.312-1.45-3.376-.411-5.008-1.074-1.546-.848-3.778.623-5.249.786-.786 1.81-1.245 2.884-1.292 1.094-.05 2.115.338 2.863 1.088.085.017.119-.019.153-.052.728-.73 1.677-1.153 2.672-1.198 1.022-.046 1.963.315 2.658 1.01zm-16.9 15.253c-1.94 0-3.881.739-5.358 2.216-.431.433-.808.914-1.125 1.437l2.373 2.372c.286.288.286.753 0 1.04-.144.144-.333.216-.52.216-.189 0-.376-.072-.52-.216l-2.157-2.158-5.068 6.962 1.086 1.086c.287.287.287.753 0 1.04-.144.144-.332.215-.52.215s-.375-.071-.519-.215l-.923-.923-6.626 9.103 1.83 1.83c.287.287.287.753 0 1.04-.143.143-.332.214-.52.214s-.376-.071-.52-.214l-1.666-1.666-3.004 4.128c-.022.031-.047.06-.074.087-.51.51-.79 1.186-.79 1.907 0 .72.28 1.397.79 1.907 1.05 1.05 2.76 1.05 3.812 0 .027-.029.057-.053.087-.075l10.067-7.329-1.416-1.417c-.286-.286-.286-.751 0-1.039.288-.286.753-.286 1.04 0l1.579 1.581 6.989-5.088-2.81-2.81c-.287-.287-.287-.752 0-1.04.287-.286.752-.286 1.04 0l2.972 2.974 3.833-2.789c.03-.022.063-.043.097-.06.704-.362 1.343-.827 1.9-1.383 2.954-2.955 2.954-7.762 0-10.717-1.478-1.477-3.419-2.216-5.358-2.216zM20.622.15c1.512.475 2.455 1.971 2.378 3.6 1.686.53 2.565 2.356 2.028 4.093 1.703.582 2.611 2.526 2.03 4.373-.518 1.649-2.056 2.678-3.61 2.531-.834 1.369-2.411 2.036-3.886 1.573-.275-.087-.536-.212-.778-.37-1.045.65-1.959 1.447-2.558 2.02 1.198.591 2.225 1.497 2.96 2.622.221.34.125.796-.215 1.017-.339.222-.793.127-1.016-.213-.76-1.166-1.912-2.038-3.241-2.455-1.54-.484-3.172-.339-4.602.405-1.428.745-2.48 2.002-2.964 3.54-.136.43-.222.873-.258 1.324l2.503.784c.387.122.602.535.48.923-.098.313-.389.514-.7.514-.073 0-.147-.011-.22-.033L6.735 25.7l-.997 6.661 1.08.34c.388.122.603.533.482.92-.1.316-.389.516-.702.516-.073 0-.147-.01-.22-.034l-.86-.271-1.136 7.591c-.054.364-.367.627-.726.627-.035 0-.073-.003-.11-.01-.401-.06-.678-.433-.618-.835l2.473-16.517c0-.764.117-1.519.345-2.243.6-1.911 1.91-3.476 3.687-4.403 1.431-.745 3.027-1.007 4.592-.767-.163-.813-.457-1.99-.94-3.118-.29-.008-.574-.055-.85-.14-1.473-.466-2.385-1.915-2.283-3.515C8.59 9.738 7.919 8.009 8.438 6.36c.281-.897.87-1.64 1.658-2.096.783-.454 1.672-.569 2.51-.327.554-1.734 2.319-2.724 3.943-2.215C17.48.36 19.112-.324 20.621.15zm20.774 5.764c-.626.029-1.229.3-1.695.77-.192.189-.352.417-.49.692-.127.251-.39.408-.667.405-.28-.005-.534-.168-.655-.42-.123-.262-.26-.466-.42-.626-.454-.455-1.08-.685-1.76-.658-.705.03-1.382.337-1.909.864-1.064 1.063-1.16 2.706-.21 3.662.269.27.286.7.041.99-.93 1.104-.947 2.62-.041 3.524.236.236.527.416.862.532.304.106.503.395.494.718-.059 1.868-.484 3.692-.83 4.894 1.201-.348 3.024-.773 4.893-.83h.023c.311 0 .591.198.694.493.117.336.296.625.533.86.905.907 2.419.89 3.523-.039.29-.245.72-.229.99.04.955.949 2.599.856 3.664-.209 1.067-1.07 1.159-2.714.205-3.67-.16-.16-.365-.297-.625-.42-.254-.12-.417-.374-.422-.655-.003-.28.153-.538.405-.665.275-.14.503-.3.694-.49.948-.95 1.032-2.408.187-3.252-.125-.125-.285-.236-.5-.345-.204-.105-.348-.298-.389-.522-.043-.225.024-.456.177-.627 1.049-1.162 1.098-2.847.11-3.834-.986-.987-2.67-.938-3.833.112-.17.154-.4.22-.627.177-.224-.042-.417-.185-.52-.389-.11-.216-.22-.375-.345-.501-.402-.4-.95-.603-1.557-.58zm-23.771-2.92c-.081.214-.255.38-.473.446-.219.067-.456.03-.643-.103-.148-.105-.276-.174-.4-.213-.856-.267-1.8.3-2.105 1.27-.062.195-.09.405-.087.644.004.28-.152.538-.404.666-.25.125-.55.1-.775-.071-.177-.135-.335-.22-.496-.27-.462-.145-.962-.085-1.41.175-.468.27-.82.72-.99 1.264-.347 1.098.164 2.243 1.137 2.551.362.117.578.489.495.86-.24 1.078.277 2.11 1.204 2.4.24.076.495.094.761.056.036-.007.073-.008.11-.008.278 0 .537.158.66.414.616 1.277.99 2.645 1.204 3.64.745-.693 1.835-1.602 3.07-2.295.282-.158.632-.114.864.106.195.183.415.316.657.39.927.292 1.94-.257 2.36-1.278.144-.35.533-.534.897-.422.974.304 2.05-.343 2.396-1.441.345-1.1-.168-2.248-1.145-2.555-.162-.05-.343-.07-.563-.061-.287.004-.544-.141-.676-.388-.133-.247-.114-.549.05-.777.139-.191.235-.38.297-.575.305-.97-.143-1.978-1-2.247-.122-.04-.266-.058-.45-.055-.232 0-.444-.101-.585-.283-.14-.179-.19-.415-.132-.636.302-1.164-.257-2.327-1.272-2.646-1.017-.322-2.137.316-2.556 1.442z" transform="translate(-856 -155) translate(81 152) translate(774.5 3.436)"/>
                </g>
            </g>
        </g>
    </g>
</svg>
