<svg xmlns="http://www.w3.org/2000/svg" width="190" height="128" viewBox="0 0 190 128">
    <g fill="none" fill-rule="evenodd">
        <g>
            <g>
                <g>
                    <path fill="#FEFEFE" d="M105.865 60h14.202c1.36 0 2.673.102 3.933.297-6.128 3.13-12.485 6.017-19 8.703v-9h.865zM72.78 80.821c-.158-.76-.24-1.558-.24-2.389 0-5.77 4.132-10.273 9.477-10.273 3.652 0 6.302 1.268 8.95 3.497L97 64.403C93.083 61.016 88.48 59 81.965 59 70.473 59 62 67.471 62 78.274c0 2.09.284 3.916.834 5.726 3.322-1.028 6.639-2.086 9.945-3.179" transform="translate(-165 -4113) translate(0 4057) translate(165 56)"/>
                    <path fill="#FEFEFE" d="M94 76H82v4c1.646-.489 3.368-1.024 4.596-1.48 2.678-.988 5.132-1.74 7.404-2.52M59 85.59L47.747 59H37.655L22 96c4.06-1.094 8.165-2.203 12.299-3.336l.983-2.415h7.716c5.315-1.496 10.66-3.041 16.002-4.658zm-20.645-3.476l4.263-10.718 4.21 10.718h-8.473z" transform="translate(-165 -4113) translate(0 4057) translate(165 56)"/>
                    <path fill="#FFF" d="M110.263 30.075c.889 3.438 2.748 7.765 8.922 11.263 5.233 2.968 9.32 3.262 15.451 5.163 2.647.824 3.85 1.263 4.364 1.499-.507-.834-2.15-3.539-3.7-6.253-1.864-3.258-3.994-6.792-5.86-8.693-1.864-1.902-7.31-5.932-7.31-5.932s4.68 1.604 6.245 2.673c2.021 1.378 3.996 3.259 6.527 7.062 2.529 3.803 3.192 6.247 3.328 5.296.133-.95.086-10.706-.681-15.155-1.083-6.305-5.038-9.723-7.442-11.06-3.769-2.092-9.392-3.337-13.52-3.608C112.456 12.055 106 12 106 12s1.865 2.446 2.53 6.114c.667 3.664.758 8.19 1.733 11.96" transform="translate(-165 -4113) translate(0 4057) translate(165 56)"/>
                    <path fill="#FFF" d="M130.26 58.56C90.962 81.322 40.031 93.05 0 104c25.443-3.643 45.03-8.531 65.585-14.74 3.858 6.394 10.192 8.831 17.365 8.831 6.81 0 12.327-2.52 16.293-5.792V77.874c30.361-11.832 51.139-26.857 70.639-52.661-5.718 11.813-12.945 18.36-22.981 26.474 0 0 7.633-2.443 16.055-3.748 13.556-2.099 18.812-6.629 22.997-12.991 4.114-6.255 4.46-14.791 3.76-22.974C189.174 5.695 187.826 0 187.826 0s-3.744 3.263-6.794 4.261c-2.76.903-7.12 1.215-11.78 2.042-5.055.894-11.683 4.105-16.052 8.509-5.312 5.345-7.422 12.532-7.556 20.17-.232 12.803-4.876 17.489-15.383 23.578zM89.38 87.58c-4.073 2.668-10.026 2.228-13.43-1.493 1.154-.42 2.385-.868 3.638-1.31 1.78-.627 3.607-1.243 5.317-1.759h4.475v4.563z" transform="translate(-165 -4113) translate(0 4057) translate(165 56)"/>
                    <path fill="#FFF" d="M60.893 88L65 97 53.68 97 51 90.893zM119.944 89.084c3.015 0 5.528-1.004 7.272-2.755 1.747-1.751 2.752-4.271 2.752-7.298 0-2.985-1.013-5.515-2.774-7.28-1.745-1.749-4.247-2.772-7.25-2.772h-4.442L129.203 62c1.914.875 3.623 2.026 5.084 3.403C137.9 68.81 140 73.592 140 79.031c0 5.402-2.11 10.2-5.738 13.623-3.527 3.328-8.484 5.346-14.318 5.346H105V72.722l6.682-1.797 2.972-1.515v19.674h5.29zM135.218 124.147c.553 0 .974-.12 1.26-.36.289-.24.432-.582.432-1.024 0-.45-.143-.794-.431-1.035-.287-.24-.708-.36-1.26-.36h-1.499v2.78h1.498zm.103-4.288c.704 0 1.315.118 1.834.355.518.236.918.571 1.198 1.005.28.435.42.95.42 1.544 0 .587-.14 1.1-.42 1.538-.28.438-.68.775-1.198 1.006-.52.232-1.13.349-1.834.349h-1.601v2.207h-1.84v-8.004h3.441zm-10.782 6.563c.47 0 .893-.109 1.271-.325.38-.218.677-.521.892-.91.216-.389.324-.832.324-1.325 0-.497-.108-.94-.324-1.327-.215-.39-.512-.692-.892-.91-.378-.218-.801-.326-1.271-.326-.47 0-.893.108-1.271.327-.379.217-.676.52-.893.909-.215.387-.323.83-.323 1.327 0 .493.108.936.323 1.325.217.389.514.692.893.91.378.216.801.325 1.271.325zm0 1.578c-.825 0-1.569-.18-2.231-.537-.662-.359-1.18-.852-1.556-1.48-.375-.63-.563-1.337-.563-2.121 0-.787.188-1.493.563-2.122.375-.629.894-1.123 1.556-1.481.662-.358 1.406-.537 2.231-.537s1.567.179 2.226.537c.658.358 1.177.852 1.555 1.481.378.629.568 1.335.568 2.122 0 .784-.19 1.491-.568 2.12-.378.629-.897 1.122-1.555 1.48-.66.359-1.4.538-2.226.538zm-12.178-8.141h1.84v6.495h3.985v1.509h-5.825v-8.004zm-3.072 6.517v1.487h-6.155v-8.004h6.008v1.487h-4.18v1.737h3.691v1.44h-3.69v1.853h4.326zm-8.42-6.517l-3.441 8.004h-1.816l-3.43-8.004h1.988l2.418 5.717 2.452-5.717h1.83zm-10.6 6.517v1.487h-6.155v-8.004h6.007v1.487h-4.179v1.737h3.69v1.44h-3.69v1.853h4.327zm-13.62-.035c.794 0 1.428-.221 1.901-.667.473-.447.71-1.051.71-1.812 0-.763-.237-1.367-.71-1.814-.473-.446-1.107-.669-1.902-.669h-1.681v4.962h1.681zm-3.522-6.482h3.612c.862 0 1.625.165 2.288.497.663.331 1.176.799 1.544 1.4.368.604.55 1.305.55 2.106 0 .799-.182 1.5-.55 2.103-.368.602-.881 1.07-1.544 1.4-.663.332-1.426.498-2.288.498h-3.612v-8.004zM139 106.137l-2.6 8.004h-1.977l-1.748-5.42-1.805 5.42h-1.965l-2.611-8.004h1.907l1.795 5.626 1.873-5.626h1.703l1.817 5.673 1.851-5.673H139zm-19.093 6.564c.468 0 .893-.11 1.271-.326.378-.218.675-.52.891-.91.216-.388.324-.83.324-1.325s-.108-.94-.324-1.327c-.216-.389-.513-.692-.891-.909-.378-.217-.803-.326-1.271-.326-.47 0-.894.109-1.272.326-.38.217-.676.52-.892.91-.216.387-.323.83-.323 1.326 0 .495.107.937.323 1.326.216.388.513.691.892.91.378.216.801.325 1.272.325zm0 1.577c-.826 0-1.569-.179-2.233-.536-.662-.36-1.18-.853-1.555-1.481-.374-.63-.561-1.336-.561-2.12 0-.787.187-1.494.561-2.122.375-.63.893-1.123 1.555-1.482.664-.358 1.407-.537 2.233-.537.824 0 1.566.18 2.225.537.658.359 1.177.852 1.555 1.482.379.628.568 1.335.568 2.121 0 .785-.19 1.491-.568 2.12-.378.629-.897 1.123-1.555 1.482-.659.357-1.401.536-2.225.536zm-8.773-5.236c0-.45-.144-.794-.431-1.035-.288-.24-.709-.36-1.26-.36h-1.5v2.79h1.5c.551 0 .972-.122 1.26-.366.287-.244.43-.587.43-1.03zm.034 5.1l-1.532-2.23H107.944v2.23h-1.84v-8.005h3.44c.705 0 1.315.119 1.834.355.519.236.918.572 1.199 1.006.279.434.42.949.42 1.544 0 .594-.143 1.107-.427 1.537-.284.431-.687.761-1.209.99l1.784 2.572h-1.977zm-10.055-4.128h1.68v3.247c-.431.328-.93.58-1.498.755-.568.175-1.14.262-1.715.262-.825 0-1.567-.176-2.225-.532-.659-.353-1.175-.845-1.55-1.474-.376-.629-.564-1.34-.564-2.132 0-.793.188-1.505.564-2.133.375-.628.895-1.12 1.56-1.475.667-.355 1.416-.532 2.249-.532.697 0 1.33.118 1.896.355.568.235 1.045.579 1.432 1.028l-1.182 1.098c-.568-.602-1.252-.903-2.055-.903-.507 0-.958.107-1.35.32-.395.213-.702.514-.922.904-.22.389-.328.834-.328 1.338 0 .495.109.937.328 1.326.22.388.525.691.915.91.39.216.835.325 1.334.325.53 0 1.007-.115 1.43-.343v-2.344zM88.4 112.7c.47 0 .894-.11 1.272-.326.379-.218.677-.52.892-.91.216-.388.323-.83.323-1.325s-.107-.94-.323-1.327c-.215-.389-.513-.692-.892-.909-.378-.217-.801-.326-1.272-.326-.468 0-.893.109-1.271.326-.379.217-.676.52-.892.91-.215.387-.324.83-.324 1.326 0 .495.109.937.324 1.326.216.388.513.691.892.91.378.216.803.325 1.271.325zm0 1.577c-.825 0-1.568-.179-2.23-.536-.663-.36-1.181-.853-1.556-1.481-.375-.63-.563-1.336-.563-2.12 0-.787.188-1.494.563-2.122.375-.63.893-1.123 1.556-1.482.662-.358 1.405-.537 2.23-.537.826 0 1.568.18 2.226.537.66.359 1.178.852 1.556 1.482.378.628.568 1.335.568 2.121 0 .785-.19 1.491-.568 2.12-.378.629-.897 1.123-1.556 1.482-.658.357-1.4.536-2.226.536zm-8.772-5.236c0-.45-.143-.794-.431-1.035-.288-.24-.707-.36-1.261-.36h-1.498v2.79h1.498c.554 0 .973-.122 1.26-.366.289-.244.432-.587.432-1.03zm.035 5.1l-1.534-2.23h-1.691v2.23h-1.84v-8.005h3.44c.704 0 1.317.119 1.835.355s.918.572 1.197 1.006c.281.434.42.949.42 1.544 0 .594-.14 1.107-.426 1.537-.283.431-.685.761-1.21.99l1.784 2.572h-1.975zm-10.056-4.128h1.681v3.247c-.43.328-.931.58-1.5.755-.566.175-1.139.262-1.713.262-.826 0-1.568-.176-2.226-.532-.66-.353-1.176-.845-1.55-1.474-.375-.629-.562-1.34-.562-2.132 0-.793.187-1.505.562-2.133.374-.628.894-1.12 1.56-1.475.667-.355 1.417-.532 2.25-.532.696 0 1.328.118 1.896.355.568.235 1.045.579 1.43 1.028l-1.18 1.098c-.568-.602-1.253-.903-2.055-.903-.508 0-.958.107-1.352.32-.393.213-.7.514-.92.904-.22.389-.33.834-.33 1.338 0 .495.11.937.33 1.326.22.388.524.691.914.91.39.216.835.325 1.335.325.53 0 1.007-.115 1.43-.343v-2.344zm-10.906 1.005l-1.26-3.064-1.261 3.064h2.52zm.579 1.407h-3.691l-.703 1.715H53l3.543-8.004h1.817l3.554 8.004h-1.93l-.704-1.715z" transform="translate(-165 -4113) translate(0 4057) translate(165 56)"/>
                </g>
            </g>
        </g>
    </g>
</svg>
