<svg xmlns="http://www.w3.org/2000/svg" width="139" height="94" viewBox="0 0 139 94">
    <g fill="none" fill-rule="evenodd">
        <g>
            <g>
                <path fill="#FEFEFE" d="M77.32 43.61h10.288c.985 0 1.936.077 2.849.226-4.44 2.393-9.045 4.6-13.764 6.653v-6.88h.627zM53.63 59.189c-.116-.562-.177-1.152-.177-1.766 0-4.265 3.054-7.594 7.004-7.594 2.7 0 4.657.938 6.614 2.586l4.46-5.362c-2.896-2.503-6.297-3.993-11.112-3.993-8.494 0-14.756 6.261-14.756 14.246 0 1.544.21 2.895.617 4.233 2.455-.76 4.906-1.542 7.35-2.35" transform="translate(-165 -22) translate(165 22)"/>
                <path fill="#FEFEFE" d="M68.578 54.998h-8.706v2.91c1.194-.355 2.444-.744 3.334-1.076 1.943-.72 3.723-1.266 5.372-1.834M43.57 62.37l-8.162-19.31H28.09L16.735 69.929c2.945-.795 5.922-1.6 8.92-2.423l.713-1.753h5.596c3.855-1.087 7.731-2.21 11.606-3.384zm-14.974-2.525l3.092-7.784 3.054 7.784h-6.146z" transform="translate(-165 -22) translate(165 22)"/>
                <path fill="#819F2C" d="M80.474 22.029c.656 2.49 2.03 5.624 6.59 8.157 3.865 2.15 6.885 2.363 11.413 3.74 1.955.597 2.845.915 3.224 1.086-.375-.604-1.589-2.564-2.733-4.53-1.377-2.36-2.951-4.918-4.328-6.296-1.378-1.377-5.401-4.296-5.401-4.296s3.458 1.162 4.613 1.936c1.493.998 2.952 2.36 4.821 5.115 1.868 2.755 2.359 4.524 2.459 3.835.098-.687.063-7.754-.503-10.976-.8-4.566-3.722-7.042-5.497-8.01-2.784-1.516-6.938-2.418-9.988-2.614-3.05-.199-7.82-.239-7.82-.239s1.378 1.772 1.87 4.428c.492 2.655.56 5.932 1.28 8.664" transform="translate(-165 -22) translate(165 22)"/>
                <path fill="#819F2C" d="M95.121 42.713C66.424 59.315 29.233 67.87.001 75.856c18.579-2.657 32.882-6.222 47.892-10.75 2.818 4.663 7.442 6.44 12.68 6.44 4.973 0 9.002-1.838 11.898-4.225v-10.52c22.172-8.63 37.344-19.59 51.584-38.41-4.176 8.615-9.453 13.39-16.782 19.309 0 0 5.574-1.782 11.724-2.734 9.9-1.53 13.737-4.835 16.793-9.476 3.005-4.561 3.258-10.788 2.747-16.756-.395-4.58-1.38-8.734-1.38-8.734s-2.733 2.38-4.96 3.108c-2.016.659-5.2.887-8.603 1.49-3.691.652-8.531 2.994-11.722 6.206-3.879 3.898-5.42 9.14-5.518 14.712-.17 9.338-3.56 12.756-11.233 17.197zM65.268 63.88c-2.974 1.946-7.321 1.625-9.807-1.089.843-.306 1.742-.633 2.656-.955 1.3-.458 2.635-.907 3.884-1.284h3.267v3.328z" transform="translate(-165 -22) translate(165 22)"/>
                <path fill="#819F2C" d="M44.114 63.56L47.068 70.646 38.928 70.646 37 65.838zM87.607 64.755c2.203 0 4.038-.732 5.312-2.008 1.276-1.277 2.01-3.114 2.01-5.32 0-2.175-.74-4.02-2.026-5.306-1.275-1.275-3.102-2.02-5.296-2.02h-3.244l10.008-5.087c1.398.638 2.645 1.476 3.713 2.48 2.639 2.482 4.172 5.969 4.172 9.933 0 3.938-1.54 7.435-4.191 9.93-2.576 2.425-6.196 3.896-10.458 3.896H76.693V52.83l4.88-1.31 2.171-1.104v14.34h3.863z" transform="translate(-165 -22) translate(165 22)"/>
                <path fill="#F79E1C" d="M99.481 90.458c.407 0 .717-.089.929-.264.212-.176.318-.425.318-.749 0-.329-.106-.58-.318-.756-.212-.177-.522-.264-.929-.264h-1.103v2.033h1.103zm.076-3.137c.519 0 .968.087 1.35.26.383.172.677.418.883.735.206.318.31.694.31 1.13 0 .428-.104.804-.31 1.124-.206.32-.5.567-.882.736-.383.17-.832.255-1.35.255h-1.18v1.614h-1.355v-5.854h2.534zm-7.94 4.8c.345 0 .657-.08.936-.237.279-.16.498-.381.656-.665.16-.285.239-.609.239-.97 0-.363-.08-.687-.239-.97-.158-.285-.377-.507-.656-.666-.28-.16-.591-.238-.937-.238-.346 0-.658.079-.936.238-.279.16-.498.38-.657.666-.16.283-.238.607-.238.97 0 .361.079.685.238.97.16.284.378.505.657.665.278.158.59.238.936.238zm0 1.155c-.609 0-1.156-.131-1.644-.393-.488-.263-.87-.624-1.146-1.083-.276-.46-.414-.977-.414-1.551 0-.575.138-1.092.414-1.552.277-.46.658-.821 1.146-1.083.488-.262 1.035-.393 1.643-.393.608 0 1.154.13 1.64.393.484.262.866.623 1.145 1.083.278.46.418.977.418 1.552 0 .574-.14 1.09-.418 1.55-.279.46-.66.821-1.145 1.084-.486.262-1.032.393-1.64.393zm-8.97-5.955h1.355v4.75h2.935v1.104h-4.29v-5.854zm-2.263 4.767v1.087h-4.533v-5.854h4.425v1.088h-3.078v1.27h2.718v1.054h-2.718v1.355h3.186zm-6.2-4.767l-2.535 5.854H70.31l-2.526-5.854h1.464l1.781 4.182 1.807-4.182h1.346zm-7.808 4.767v1.087h-4.533v-5.854h4.425v1.088H63.19v1.27h2.718v1.054H63.19v1.355h3.186zm-10.031-.026c.585 0 1.052-.162 1.4-.488.349-.327.523-.768.523-1.325 0-.558-.174-1-.523-1.327-.348-.326-.815-.489-1.4-.489h-1.239v3.63h1.239zm-2.593-4.74h2.66c.634 0 1.196.12 1.685.363.488.242.866.584 1.137 1.024.27.441.406.954.406 1.54 0 .584-.135 1.097-.406 1.538-.27.44-.65.782-1.137 1.024-.489.243-1.05.364-1.686.364h-2.66v-5.854zm48.515-10.037l-1.915 5.854h-1.456l-1.288-3.964-1.329 3.964h-1.447l-1.924-5.854h1.405l1.322 4.115 1.38-4.115h1.254l1.338 4.149 1.363-4.149h1.297zm-14.063 4.8c.346 0 .658-.08.937-.237.278-.16.497-.381.656-.665.16-.285.239-.608.239-.97 0-.363-.08-.687-.239-.97-.159-.285-.378-.507-.656-.666-.279-.158-.591-.238-.937-.238-.346 0-.657.08-.936.238-.28.16-.498.38-.657.666-.16.283-.238.607-.238.97 0 .362.079.685.238.97.159.284.378.505.657.665.279.158.59.238.936.238zm0 1.155c-.608 0-1.155-.131-1.644-.393-.487-.262-.869-.624-1.145-1.083-.276-.46-.414-.977-.414-1.551 0-.575.138-1.092.414-1.552.276-.46.658-.821 1.145-1.083.49-.262 1.036-.393 1.644-.393.608 0 1.154.13 1.64.393.484.262.866.623 1.145 1.083.279.46.418.977.418 1.552 0 .574-.14 1.09-.418 1.55-.279.46-.661.822-1.145 1.084-.486.262-1.032.393-1.64.393zm-6.46-3.83c0-.329-.107-.581-.318-.757-.212-.176-.522-.264-.929-.264h-1.104v2.04h1.104c.407 0 .717-.088.929-.267.211-.178.317-.43.317-.752zm.024 3.73l-1.128-1.632H79.393v1.631H78.04v-5.854h2.534c.518 0 .968.087 1.35.26.382.173.676.418.883.735.205.318.31.695.31 1.13 0 .434-.106.81-.315 1.124-.21.315-.506.557-.89.724l1.313 1.881h-1.456zm-7.405-3.02H75.6v2.375c-.318.24-.686.425-1.104.552-.418.129-.84.193-1.263.193-.608 0-1.154-.13-1.64-.39-.484-.258-.864-.618-1.14-1.078-.277-.46-.415-.98-.415-1.56 0-.579.138-1.1.415-1.56.276-.459.659-.819 1.149-1.078.49-.26 1.043-.39 1.656-.39.513 0 .979.087 1.397.26.418.172.769.424 1.054.752l-.87.803c-.419-.44-.923-.66-1.514-.66-.374 0-.706.078-.995.235-.29.155-.517.375-.678.66-.162.285-.242.61-.242.979 0 .362.08.685.242.97.161.284.386.505.673.665.288.158.616.238.983.238.39 0 .742-.084 1.054-.251V80.12zM65 82.086c.346 0 .658-.08.936-.238.28-.16.5-.381.658-.665.158-.285.238-.608.238-.97 0-.363-.08-.687-.238-.97-.159-.285-.378-.507-.658-.666-.278-.158-.59-.238-.936-.238-.345 0-.658.08-.936.238-.28.16-.498.38-.657.666-.159.283-.239.607-.239.97 0 .362.08.685.24.97.158.284.377.505.656.665.278.158.59.238.936.238zm0 1.154c-.608 0-1.155-.131-1.643-.393s-.87-.624-1.146-1.083c-.276-.46-.414-.977-.414-1.551 0-.575.138-1.092.414-1.552.276-.46.658-.821 1.146-1.083.488-.262 1.035-.393 1.643-.393.608 0 1.155.13 1.64.393.485.262.867.623 1.145 1.083.279.46.419.977.419 1.552 0 .574-.14 1.09-.419 1.55-.278.46-.66.822-1.146 1.084-.484.262-1.031.393-1.639.393zm-6.46-3.83c0-.329-.106-.581-.318-.757-.212-.176-.521-.264-.929-.264H56.19v2.04h1.103c.408 0 .717-.088.929-.267.212-.178.317-.43.317-.752zm.025 3.73l-1.13-1.632H56.19v1.631h-1.355v-5.854h2.535c.518 0 .969.087 1.35.26.382.173.677.418.883.735.206.318.309.695.309 1.13 0 .434-.104.81-.314 1.124-.208.315-.505.557-.89.724l1.313 1.881h-1.455zm-7.406-3.02h1.238v2.375c-.317.24-.686.425-1.104.552-.418.129-.84.193-1.262.193-.609 0-1.155-.13-1.64-.39-.485-.258-.866-.618-1.142-1.078-.276-.46-.413-.98-.413-1.56 0-.579.137-1.1.413-1.56.276-.459.66-.819 1.15-1.078.491-.26 1.043-.39 1.657-.39.512 0 .977.087 1.396.26.418.172.77.424 1.053.752l-.869.803c-.418-.44-.922-.66-1.514-.66-.373 0-.705.078-.995.235-.29.155-.516.375-.677.66-.163.285-.243.61-.243.979 0 .362.08.685.243.97.161.284.385.505.673.665.287.158.614.238.983.238.39 0 .741-.084 1.053-.251V80.12zm-8.033.736l-.928-2.241-.928 2.241h1.856zm.427 1.029h-2.718l-.518 1.254h-1.39l2.61-5.854h1.339l2.617 5.854h-1.421l-.52-1.254z" transform="translate(-165 -22) translate(165 22)"/>
            </g>
        </g>
    </g>
</svg>
